<?xml version="1.0"?>
<svg xmlns="http://www.w3.org/2000/svg" xmlns:xlink="http://www.w3.org/1999/xlink" version="1.1" id="Capa_1" x="0px" y="0px" viewBox="0 0 467.698 467.698" style="enable-background:new 0 0 467.698 467.698;" xml:space="preserve" width="512px" height="512px"><g><path style="fill:#1185E0;" d="M447.806,193.882c-20.376-40.229-51.722-68.441-86.727-77.845  c-24.033-6.269-47.543-3.135-67.396,9.404c-14.106,5.224-29.257,8.882-43.886,10.449V93.049c0-8.882-6.792-15.673-15.673-15.673  s-15.673,6.792-15.673,15.673v43.886c-15.673-1.045-31.347-4.18-46.498-9.404c-19.331-12.016-42.318-15.673-65.829-9.404  c-33.959,8.882-65.306,37.094-85.682,76.278C-14.561,262.845-3.59,342.257,45.521,374.649  c19.331,13.061,42.841,16.718,66.873,10.449c32.914-8.359,62.694-33.959,83.069-70.531c23.51-8.882,50.155-8.882,73.665,0.522  c20.376,37.094,51.2,63.216,84.637,72.098c7.837,2.09,15.151,3.135,22.988,3.135c16.196,0,31.869-4.702,45.453-13.584  C470.794,344.869,482.288,262.845,447.806,193.882z M404.443,350.616c-12.539,8.359-27.167,10.449-42.841,6.269  c-25.6-6.792-50.678-29.257-66.351-59.559c-2.612-5.747-7.837-8.359-9.404-9.404c0,0-0.522,0-0.522-0.522  c-16.718-7.314-35.004-10.971-53.29-10.971c-16.196,0-32.392,3.135-47.543,8.882l-1.045,0.522c-1.045,0.522-2.09,0.522-3.135,1.045  c-2.09,1.045-6.792,3.135-9.404,8.882c-15.673,30.302-40.229,52.245-65.306,59.037c-15.151,4.18-29.78,1.567-41.796-6.269  C28.28,325.539,21.488,261.8,48.655,209.033c15.673-31.347,40.229-53.812,65.829-60.604c15.151-4.18,29.78-2.09,42.318,6.269  c1.045,0.522,2.612,1.567,3.657,1.567l1.567,0.522c47.02,16.196,98.743,15.151,145.241-2.612c1.045-0.522,2.09-1.045,3.135-1.567  c12.539-8.359,27.69-10.449,43.363-6.269c26.122,6.792,50.678,29.78,66.873,61.649C446.761,261.8,439.97,327.629,404.443,350.616z" data-original="#1185E0"/><g>
	<path style="fill:#4DCFE0;" d="M121.798,286.355c-27.167,0-49.633-22.465-49.633-49.633s22.465-49.633,49.633-49.633   s49.633,22.465,49.633,49.633S148.965,286.355,121.798,286.355z M121.798,218.437c-9.927,0-18.286,8.359-18.286,18.286   s8.359,18.286,18.286,18.286s18.286-8.359,18.286-18.286S131.725,218.437,121.798,218.437z" data-original="#4DCFE0" class="active-path"/>
	<path style="fill:#4DCFE0;" d="M390.859,223.661h-20.898v-20.898c0-8.882-6.792-15.673-15.673-15.673s-15.673,6.792-15.673,15.673   v20.898h-20.898c-8.882,0-15.673,6.792-15.673,15.673s6.792,15.673,15.673,15.673h20.898v20.898   c0,8.882,6.792,15.673,15.673,15.673s15.673-6.792,15.673-15.673v-20.898h20.898c8.882,0,15.673-6.792,15.673-15.673   S399.741,223.661,390.859,223.661z" data-original="#4DCFE0" class="active-path"/>
</g></g> </svg>
