<?xml version="1.0"?>
<svg xmlns="http://www.w3.org/2000/svg" id="Layer_3" enable-background="new 0 0 64 64" height="512px" viewBox="0 0 64 64" width="512px"><g><path d="m29 38 8.765 2.697c2.517.774 4.235 3.1 4.235 5.734v8.569h-7v7h-6z" fill="#4d5d7a" data-original="#4D5D7A"/><path d="m35 55h7v7h-7z" fill="#eebaa0" data-original="#EEBAA0"/><circle cx="47" cy="47" fill="#c7e2fc" r="15" data-original="#C7E2FC" class=""/><path d="m58 39.5c0-1.021-.106-2.016-.283-2.986-2.723-2.782-6.516-4.514-10.717-4.514-8.284 0-15 6.716-15 15 0 2.56.644 4.968 1.775 7.076 2.305 1.224 4.932 1.924 7.725 1.924 9.113 0 16.5-7.387 16.5-16.5z" fill="#ebf7fe" data-original="#EBF7FE" class=""/><path d="m49 49c0 3.866-3.134 7-7 7s-7-3.134-7-7 3.134-7 7-7h4v2h4v-2h7v5z" fill="#e47c6e" data-original="#E47C6E" class=""/><circle cx="42" cy="49" fill="#3d98f7" r="3" data-original="#3D98F7"/><path d="m15 40h7v22h-7z" fill="#a1cdfb" data-original="#A1CDFB"/><path d="m22 40h7v22h-7z" fill="#c7e2fc" data-original="#C7E2FC" class=""/><path d="m15 38-8.765 2.697c-2.517.774-4.235 3.1-4.235 5.734v8.569h7v7h6z" fill="#4d5d7a" data-original="#4D5D7A"/><path d="m15 38c0 3.314 2.686 6 6 6h2c3.314 0 6-2.686 6-6" fill="#dea291" data-original="#DEA291"/><path d="m2 55h7v7h-7z" fill="#eebaa0" data-original="#EEBAA0"/><path d="m9 15c0-7.18 5.82-13 13-13 7.18 0 13 5.82 13 13" fill="#4d5d7a" data-original="#4D5D7A"/><path d="m35 15v12c0 7.18-5.82 13-13 13-7.18 0-13-5.82-13-13v-12" fill="#dea291" data-original="#DEA291"/><path d="m20 39.831c6.228-.965 11-6.333 11-12.831v-12h-22v12c0 6.498 4.772 11.866 11 12.831z" fill="#eebaa0" data-original="#EEBAA0"/><path d="m35 16-4 2-3.154-1.051c-1.885-.629-3.859-.949-5.846-.949-1.987 0-3.961.32-5.846.949l-3.154 1.051-4-2v-2l3.149-.787c3.222-.806 6.53-1.213 9.851-1.213 3.321 0 6.629.407 9.851 1.213l3.149.787" fill="#243242" data-original="#243242"/><path d="m9 21c-2.209 0-4 1.791-4 4 0 2.209 1.791 4 4 4" fill="#dea291" data-original="#DEA291"/><path d="m35 21c2.209 0 4 1.791 4 4 0 2.209-1.791 4-4 4" fill="#eebaa0" data-original="#EEBAA0"/><path d="m22 41c-7.72 0-14-6.28-14-14v-12c0-7.72 6.28-14 14-14s14 6.28 14 14v12c0 7.72-6.28 14-14 14zm0-38c-6.617 0-12 5.383-12 12v12c0 6.617 5.383 12 12 12s12-5.383 12-12v-12c0-6.617-5.383-12-12-12z" data-original="#000000" class="active-path" style="fill:#000000"/><path d="m9 30c-2.757 0-5-2.243-5-5s2.243-5 5-5v2c-1.654 0-3 1.346-3 3s1.346 3 3 3z" data-original="#000000" class="active-path" style="fill:#000000"/><path d="m35 30v-2c1.654 0 3-1.346 3-3s-1.346-3-3-3v-2c2.757 0 5 2.243 5 5s-2.243 5-5 5z" data-original="#000000" class="active-path" style="fill:#000000"/><path d="m8 49h2v13h-2z" data-original="#000000" class="active-path" style="fill:#000000"/><path d="m34 56h2v6h-2z" data-original="#000000" class="active-path" style="fill:#000000"/><path d="m34.757 14.97-3.149-.787c-6.278-1.57-12.938-1.57-19.216 0l-3.149.787-.485-1.94 3.149-.787c6.596-1.649 13.591-1.649 20.187 0l3.149.787z" data-original="#000000" class="active-path" style="fill:#000000"/><path d="m31 19c-.106 0-.213-.017-.316-.051l-3.154-1.051c-3.572-1.191-7.487-1.191-11.06 0l-3.154 1.051c-.252.083-.526.063-.764-.054l-4-2 .895-1.789 3.629 1.815 2.761-.921c3.981-1.327 8.344-1.327 12.325 0l2.761.92 3.629-1.815.895 1.789-4 2c-.14.07-.293.106-.447.106z" data-original="#000000" class="active-path" style="fill:#000000"/><path d="m23 45h-2c-3.86 0-7-3.141-7-7h2c0 2.757 2.243 5 5 5h2c2.757 0 5-2.243 5-5h2c0 3.859-3.14 7-7 7z" data-original="#000000" class="active-path" style="fill:#000000"/><path d="m30.5 36.153h2v5.231h-2z" transform="matrix(.294 -.956 .956 .294 -14.817 57.478)" data-original="#000000" class="active-path" style="fill:#000000"/><path d="m42 63h-40c-.552 0-1-.447-1-1v-15.568c0-3.092 1.986-5.781 4.941-6.691l8.765-2.696.588 1.912-8.765 2.696c-2.111.649-3.529 2.57-3.529 4.779v14.568h40v1c0 .553-.448 1-1 1z" data-original="#000000" class="active-path" style="fill:#000000"/><path d="m9 56h-7c-.552 0-1-.447-1-1s.448-1 1-1h7c.552 0 1 .447 1 1s-.448 1-1 1z" data-original="#000000" class="active-path" style="fill:#000000"/><path d="m21 44h2v18h-2z" data-original="#000000" class="active-path" style="fill:#000000"/><path d="m28 38h2v24h-2z" data-original="#000000" class="active-path" style="fill:#000000"/><path d="m14 38h2v24h-2z" data-original="#000000" class="active-path" style="fill:#000000"/><path d="m42 57c-4.411 0-8-3.589-8-8s3.589-8 8-8h4c.552 0 1 .447 1 1v1h2v-1c0-.553.448-1 1-1h7c.552 0 1 .447 1 1v5c0 .459-.312.858-.757.97l-7.281 1.82c-.399 4.042-3.817 7.21-7.962 7.21zm0-14c-3.309 0-6 2.691-6 6s2.691 6 6 6 6-2.691 6-6c0-.459.312-.858.757-.97l7.243-1.811v-3.219h-5v1c0 .553-.448 1-1 1h-4c-.552 0-1-.447-1-1v-1z" data-original="#000000" class="active-path" style="fill:#000000"/><path d="m42 53c-2.206 0-4-1.794-4-4s1.794-4 4-4 4 1.794 4 4-1.794 4-4 4zm0-6c-1.103 0-2 .897-2 2s.897 2 2 2 2-.897 2-2-.897-2-2-2z" data-original="#000000" class="active-path" style="fill:#000000"/><path d="m47 63c-8.822 0-16-7.178-16-16s7.178-16 16-16 16 7.178 16 16-7.178 16-16 16zm0-30c-7.72 0-14 6.28-14 14s6.28 14 14 14 14-6.28 14-14-6.28-14-14-14z" data-original="#000000" class="active-path" style="fill:#000000"/></g> </svg>
