<?xml version="1.0"?>
<svg xmlns="http://www.w3.org/2000/svg" height="512px" viewBox="0 0 487.086 487" width="512px" class=""><g><path d="m458.644531 12.867188-13.117187-4.402344-12.542969-4.207032c-2.457031-.828124-5.039063.871094-5.257813 3.457032l-3.351562 40.019531-10.964844-39.984375c-.699218-2.5625-3.660156-3.742188-5.933594-2.363281l-11.421874 6.9375-12.21875 7.417969c-2.007813 1.21875-2.539063 3.898437-1.144532 5.789062l17.34375 23.546875h46.511719l14.445313-30.714844c1.019531-2.164062-.078126-4.734375-2.347657-5.496093zm0 0" fill="#4671c6" data-original="#4671C6" class="" style="fill:#04458F" data-old_color="#4671c6"/><g fill="#f9cfcf"><path d="m360.203125 176.519531v-122.882812h122.882813v122.882812zm0 0" data-original="#F9CFCF" class="" style="fill:#FFDECC" data-old_color="#F9CFCF"/><path d="m396.746094 78.089844v83.492187c0 26.128907-21.183594 47.3125-47.3125 47.3125h-114.929688v-178.121093h114.929688c26.128906 0 47.3125 21.183593 47.3125 47.316406zm0 0" data-original="#F9CFCF" class="" style="fill:#FFDECC" data-old_color="#F9CFCF"/><path d="m290.101562 172.710938v27.832031c0 4.613281-3.738281 8.351562-8.351562 8.351562h-68.613281c-6.148438 0-11.132813-4.984375-11.132813-11.132812v-22.265625c0-6.148438 4.984375-11.132813 11.132813-11.132813h68.613281c4.613281 0 8.351562 3.738281 8.351562 8.347657zm0 0" data-original="#F9CFCF" class="" style="fill:#FFDECC" data-old_color="#F9CFCF"/><path d="m290.101562 128.183594v27.828125c0 4.613281-3.738281 8.351562-8.351562 8.351562h-68.613281c-6.148438 0-11.132813-4.984375-11.132813-11.132812v-22.265625c0-6.144532 4.984375-11.128906 11.132813-11.128906h68.613281c4.613281 0 8.351562 3.738281 8.351562 8.347656zm0 0" data-original="#F9CFCF" class="" style="fill:#FFDECC" data-old_color="#F9CFCF"/><path d="m290.101562 83.65625v27.828125c0 4.613281-3.738281 8.351563-8.351562 8.351563h-68.613281c-6.148438 0-11.132813-4.984376-11.132813-11.132813v-22.265625c0-6.148438 4.984375-11.132812 11.132813-11.132812h68.613281c4.613281 0 8.351562 3.738281 8.351562 8.351562zm0 0" data-original="#F9CFCF" class="" style="fill:#FFDECC" data-old_color="#F9CFCF"/><path d="m290.101562 39.125v27.828125c0 4.613281-3.738281 8.351563-8.351562 8.351563h-68.613281c-6.148438 0-11.132813-4.984376-11.132813-11.132813v-22.261719c0-6.148437 4.984375-11.132812 11.132813-11.132812h68.613281c4.613281-.003906 8.351562 3.734375 8.351562 8.347656zm0 0" data-original="#F9CFCF" class="" style="fill:#FFDECC" data-old_color="#F9CFCF"/></g><path d="m281.75 212.894531h-68.613281c-8.34375 0-15.128907-6.789062-15.128907-15.132812v-22.265625c0-8.34375 6.785157-15.132813 15.128907-15.132813h68.613281c6.808594 0 12.351562 5.539063 12.351562 12.347657v27.832031c0 6.808593-5.539062 12.351562-12.351562 12.351562zm-68.613281-44.53125c-3.929688 0-7.128907 3.203125-7.128907 7.132813v22.265625c0 3.933593 3.199219 7.132812 7.128907 7.132812h68.613281c2.398438 0 4.351562-1.953125 4.351562-4.351562v-27.832031c0-2.394532-1.953124-4.347657-4.351562-4.347657zm0 0" fill="#3762cc" data-original="#3762CC" class="" style="fill:#000000" data-old_color="#3762cc"/><path d="m281.75 168.363281h-68.613281c-8.34375 0-15.128907-6.785156-15.128907-15.128906v-22.269531c0-8.34375 6.785157-15.128906 15.128907-15.128906h68.613281c6.808594 0 12.351562 5.539062 12.351562 12.347656v27.832031c0 6.808594-5.539062 12.347656-12.351562 12.347656zm-68.613281-44.527343c-3.929688 0-7.128907 3.199218-7.128907 7.128906v22.265625c0 3.933593 3.199219 7.132812 7.128907 7.132812h68.613281c2.398438 0 4.351562-1.953125 4.351562-4.351562v-27.828125c0-2.398438-1.953124-4.347656-4.351562-4.347656zm0 0" fill="#3762cc" data-original="#3762CC" class="" style="fill:#000000" data-old_color="#3762cc"/><path d="m281.75 123.835938h-68.613281c-8.34375 0-15.128907-6.789063-15.128907-15.132813v-22.265625c0-8.34375 6.785157-15.132812 15.128907-15.132812h68.613281c6.808594 0 12.351562 5.539062 12.351562 12.347656v27.832031c0 6.808594-5.539062 12.351563-12.351562 12.351563zm-68.613281-44.53125c-3.929688 0-7.128907 3.199218-7.128907 7.132812v22.261719c0 3.933593 3.199219 7.132812 7.128907 7.132812h68.613281c2.398438 0 4.351562-1.953125 4.351562-4.347656v-27.828125c0-2.398438-1.953124-4.347656-4.351562-4.347656h-68.613281zm0 0" fill="#3762cc" data-original="#3762CC" class="" style="fill:#000000" data-old_color="#3762cc"/><path d="m281.75 79.304688h-68.613281c-8.34375 0-15.128907-6.789063-15.128907-15.132813v-22.261719c0-8.34375 6.785157-15.132812 15.128907-15.132812h68.613281c6.808594 0 12.351562 5.539062 12.351562 12.347656v27.832031c0 6.808594-5.539062 12.347657-12.351562 12.347657zm-68.613281-44.53125c-3.929688 0-7.128907 3.203124-7.128907 7.132812v22.265625c0 3.929687 3.199219 7.128906 7.128907 7.128906h68.613281c2.398438 0 4.351562-1.949219 4.351562-4.347656v-27.828125c0-2.398438-1.953124-4.351562-4.351562-4.351562zm0 0" fill="#3762cc" data-original="#3762CC" class="" style="fill:#000000" data-old_color="#3762cc"/><path d="m349.433594 212.894531h-67.683594c-2.207031 0-4-1.792969-4-4 0-2.210937 1.792969-4 4-4 2.398438 0 4.351562-1.953125 4.351562-4.351562v-27.832031c0-2.394532-1.953124-4.347657-4.351562-4.347657-2.207031 0-4-1.792969-4-4s1.792969-4 4-4c2.398438 0 4.351562-1.953125 4.351562-4.351562v-27.828125c0-2.398438-1.953124-4.347656-4.351562-4.347656-2.207031 0-4-1.792969-4-4 0-2.210938 1.792969-4 4-4 2.398438 0 4.351562-1.953126 4.351562-4.351563v-27.828125c0-2.398438-1.953124-4.347656-4.351562-4.347656-2.207031 0-4-1.792969-4-4 0-2.210938 1.792969-4 4-4 2.398438 0 4.351562-1.953125 4.351562-4.351563v-27.832031c0-2.398438-1.953124-4.351562-4.351562-4.351562-2.207031 0-4-1.789063-4-4 0-2.207032 1.792969-4 4-4h67.683594c17.355468 0 33.15625 8.503906 42.707031 22.863281h90.945313c2.207031 0 4 1.792969 4 4v122.878906c0 2.210937-1.792969 4-4 4h-85.960938c-7.71875 19.484375-26.53125 32.378906-47.691406 32.378906zm-56.125-8h56.128906c18.683594 0 35.199219-11.914062 41.09375-29.640625.542969-1.632812 2.074219-2.738281 3.792969-2.738281h84.761719v-114.878906h-89.140626c-1.398437 0-2.699218-.730469-3.421874-1.929688-7.925782-13.109375-21.792969-20.933593-37.085938-20.933593h-56.128906c.511718 1.355468.792968 2.820312.792968 4.351562v27.832031c0 3.214844-1.234374 6.148438-3.257812 8.351563 2.023438 2.199218 3.257812 5.128906 3.257812 8.347656v27.832031c0 3.214844-1.234374 6.148438-3.257812 8.347657 2.023438 2.199218 3.257812 5.132812 3.257812 8.347656v27.832031c0 3.21875-1.234374 6.152344-3.257812 8.351563 2.023438 2.199218 3.257812 5.132812 3.257812 8.347656v27.832031c0 1.527344-.28125 2.992187-.792968 4.347656zm0 0" fill="#3762cc" data-original="#3762CC" class="" style="fill:#000000" data-old_color="#3762cc"/><path d="m356 208.515625-63.085938 24.644531c-1.859374.722656-3.839843 1.097656-5.835937 1.097656h-20.570313c-6.148437 0-11.132812-4.984374-11.132812-11.132812v-55.027344c0-6.882812 5.582031-12.464844 12.464844-12.464844 12.292968 0 22.261718 9.96875 22.261718 22.265626v17.046874zm0 0" fill="#f9cfcf" data-original="#F9CFCF" class="" style="fill:#FFDECC" data-old_color="#f9cfcf"/><path d="m290.101562 195.324219 64.507813 13.28125c23.695313-2.578125 42.136719-22.644531 42.136719-47.027344v-32.699219h-53.734375c-29.222657 0-52.910157 23.6875-52.910157 52.910156zm0 0" fill="#f9cfcf" data-original="#F9CFCF" class="" style="fill:#FFDECC" data-old_color="#f9cfcf"/><path d="m287.078125 238.257812h-20.570313c-8.347656 0-15.132812-6.789062-15.132812-15.132812v-55.027344c0-9.078125 7.386719-16.464844 16.460938-16.464844 8.882812 0 16.753906 4.4375 21.507812 11.207032 7.820312-22.089844 28.925781-37.960938 53.667969-37.960938h53.734375c2.207031 0 4 1.792969 4 4v32.703125c0 25.175781-18.484375 46.703125-43.222656 50.632813-.019532.011718-.042969.019531-.066407.027344l-63.085937 24.644531c-2.332032.90625-4.785156 1.371093-7.292969 1.371093zm-19.242187-78.625c-4.664063 0-8.460938 3.796876-8.460938 8.464844v55.027344c0 3.933594 3.199219 7.132812 7.132812 7.132812h20.570313c1.507813 0 2.976563-.277343 4.378906-.828124l61.660157-24.085938c.5625-.457031 1.25-.765625 2.011718-.867188 21.445313-2.820312 37.617188-21.265624 37.617188-42.894531v-28.703125h-49.734375c-26.96875 0-48.910157 21.941406-48.910157 48.910156 0 2.207032-1.792968 4-4 4-2.210937 0-4-1.792968-4-4v-3.886718c0-10.074219-8.195312-18.269532-18.265624-18.269532zm0 0" fill="#3762cc" data-original="#3762CC" class="" style="fill:#000000" data-old_color="#3762cc"/><path d="m397.765625 181.078125v-132h56v132zm0 0" fill="#4671c6" data-original="#4671C6" class="" style="fill:#04458F" data-old_color="#4671c6"/><path d="m453.765625 185.078125h-56c-2.207031 0-4-1.792969-4-4v-132c0-2.210937 1.792969-4 4-4h56c2.207031 0 4 1.789063 4 4v132c0 2.207031-1.789063 4-4 4zm-52-8h48v-124h-48zm0 0" fill="#3762cc" data-original="#3762CC" class="" style="fill:#000000" data-old_color="#3762cc"/><path d="m446.542969 53.078125h-46.507813c-1.273437 0-2.46875-.605469-3.222656-1.628906l-17.339844-23.546875c-1.328125-1.804688-1.839844-4.097656-1.40625-6.292969.4375-2.199219 1.785156-4.125 3.699219-5.289063l23.636719-14.355468c2.167968-1.3125 4.761718-1.53125 7.117187-.59375 2.351563.941406 4.085938 2.878906 4.753907 5.320312l5 18.238282 1.46875-17.550782c.207031-2.460937 1.511718-4.65625 3.578124-6.015625 2.0625-1.35937475 4.589844-1.6875 6.941407-.902343l25.65625 8.617187c2.160156.722656 3.917969 2.34375 4.808593 4.441406.898438 2.09375.855469 4.480469-.117187 6.546875l-14.449219 30.710938c-.65625 1.40625-2.066406 2.300781-3.617187 2.300781zm-17.929688-8h15.390625l13.371094-28.417969 1.269531-3.792968-1.273437 3.792968-25.660156-8.613281zm-26.558593 0h17.449218l-9.949218-36.273437-23.640626 14.355468zm0 0" fill="#3762cc" data-original="#3762CC" class="" style="fill:#000000" data-old_color="#3762cc"/><path d="m104.390625 461.597656-17.339844-23.546875h-46.511719l-14.445312 30.714844c-1.019531 2.164063.078125 4.734375 2.34375 5.492187l13.117188 4.40625 12.542968 4.207032c2.460938.828125 5.042969-.871094 5.261719-3.457032l3.351563-40.019531 10.960937 39.984375c.703125 2.5625 3.664063 3.742188 5.933594 2.363282l11.425781-6.933594 12.214844-7.417969c2.007812-1.21875 2.539062-3.898437 1.144531-5.792969zm0 0" fill="#ffea92" data-original="#FFEA92" class="active-path" style="fill:#C12020" data-old_color="#ffea92"/><path d="m126.878906 310.613281v122.878907h-122.878906v-122.878907zm0 0" fill="#f9cfcf" data-original="#F9CFCF" class="" style="fill:#FFDECC" data-old_color="#f9cfcf"/><path d="m90.339844 409.042969v-83.492188c0-26.128906 21.179687-47.3125 47.308594-47.3125h114.933593v178.117188h-114.929687c-26.128906 0-47.3125-21.183594-47.3125-47.3125zm0 0" fill="#f9cfcf" data-original="#F9CFCF" class="" style="fill:#FFDECC" data-old_color="#f9cfcf"/><path d="m196.984375 314.417969v-27.832031c0-4.609376 3.738281-8.347657 8.351563-8.347657h68.613281c6.148437 0 11.128906 4.980469 11.128906 11.128907v22.265624c0 6.148438-4.980469 11.132813-11.128906 11.132813h-68.613281c-4.613282 0-8.351563-3.738281-8.351563-8.347656zm0 0" fill="#f9cfcf" data-original="#F9CFCF" class="" style="fill:#FFDECC" data-old_color="#f9cfcf"/><path d="m196.984375 358.945312v-27.828124c0-4.613282 3.738281-8.351563 8.351563-8.351563h68.613281c6.148437 0 11.128906 4.984375 11.128906 11.132813v22.265624c0 6.148438-4.980469 11.128907-11.128906 11.128907h-68.613281c-4.613282.003906-8.351563-3.734375-8.351563-8.347657zm0 0" fill="#f9cfcf" data-original="#F9CFCF" class="" style="fill:#FFDECC" data-old_color="#f9cfcf"/><path d="m196.984375 403.476562v-27.828124c0-4.613282 3.738281-8.351563 8.351563-8.351563h68.613281c6.148437 0 11.128906 4.984375 11.128906 11.132813v22.261718c0 6.148438-4.980469 11.132813-11.128906 11.132813h-68.613281c-4.613282 0-8.351563-3.738281-8.351563-8.347657zm0 0" fill="#f9cfcf" data-original="#F9CFCF" class="" style="fill:#FFDECC" data-old_color="#f9cfcf"/><path d="m196.984375 448.003906v-27.828125c0-4.613281 3.738281-8.351562 8.351563-8.351562h68.613281c6.148437 0 11.128906 4.984375 11.128906 11.132812v22.261719c0 6.148438-4.980469 11.132812-11.128906 11.132812h-68.613281c-4.613282.003907-8.351563-3.734374-8.351563-8.347656zm0 0" fill="#f9cfcf" data-original="#F9CFCF" class="" style="fill:#FFDECC" data-old_color="#f9cfcf"/><path d="m273.945312 326.765625h-68.613281c-6.808593 0-12.351562-5.539063-12.351562-12.347656v-27.832031c0-6.808594 5.542969-12.347657 12.351562-12.347657h68.613281c8.34375 0 15.132813 6.785157 15.132813 15.128907v22.265624c0 8.347657-6.789063 15.132813-15.132813 15.132813zm-68.613281-44.527344c-2.398437 0-4.351562 1.949219-4.351562 4.347657v27.832031c0 2.398437 1.953125 4.347656 4.351562 4.347656h68.613281c3.933594 0 7.132813-3.199219 7.132813-7.132813v-22.261718c0-3.933594-3.199219-7.132813-7.132813-7.132813zm0 0" fill="#3762cc" data-original="#3762CC" class="" style="fill:#000000" data-old_color="#3762cc"/><path d="m273.945312 371.296875h-68.613281c-6.808593 0-12.351562-5.539063-12.351562-12.351563v-27.828124c0-6.808594 5.542969-12.351563 12.351562-12.351563h68.613281c8.34375 0 15.132813 6.789063 15.132813 15.132813v22.265624c0 8.34375-6.789063 15.132813-15.132813 15.132813zm-68.613281-44.53125c-2.398437 0-4.351562 1.953125-4.351562 4.351563v27.832031c0 2.398437 1.953125 4.347656 4.351562 4.347656h68.613281c3.933594 0 7.132813-3.199219 7.132813-7.128906v-22.265625c0-3.933594-3.199219-7.132813-7.132813-7.132813h-68.613281zm0 0" fill="#3762cc" data-original="#3762CC" class="" style="fill:#000000" data-old_color="#3762cc"/><path d="m273.945312 415.828125h-68.613281c-6.808593 0-12.351562-5.542969-12.351562-12.351563v-27.832031c0-6.808593 5.542969-12.347656 12.351562-12.347656h68.613281c8.34375 0 15.132813 6.789063 15.132813 15.132813v22.261718c0 8.34375-6.789063 15.136719-15.132813 15.136719zm-68.613281-44.53125c-2.398437 0-4.351562 1.953125-4.351562 4.347656v27.832031c0 2.398438 1.953125 4.351563 4.351562 4.351563h68.613281c3.933594 0 7.132813-3.203125 7.132813-7.132813v-22.265624c0-3.929688-3.199219-7.132813-7.132813-7.132813zm0 0" fill="#3762cc" data-original="#3762CC" class="" style="fill:#000000" data-old_color="#3762cc"/><path d="m273.945312 460.355469h-68.613281c-6.808593 0-12.351562-5.539063-12.351562-12.351563v-27.832031c0-6.808594 5.542969-12.347656 12.351562-12.347656h68.613281c8.34375 0 15.132813 6.789062 15.132813 15.132812v22.261719c0 8.347656-6.789063 15.136719-15.132813 15.136719zm-68.613281-44.527344c-2.398437 0-4.351562 1.949219-4.351562 4.347656v27.832031c0 2.398438 1.953125 4.347657 4.351562 4.347657h68.613281c3.933594 0 7.132813-3.199219 7.132813-7.128907v-22.269531c0-3.933593-3.199219-7.132812-7.132813-7.132812h-68.613281zm0 0" fill="#3762cc" data-original="#3762CC" class="" style="fill:#000000" data-old_color="#3762cc"/><path d="m205.332031 460.355469h-67.679687c-17.355469 0-33.15625-8.503907-42.707032-22.863281h-90.945312c-2.207031 0-4-1.792969-4-4v-122.878907c0-2.207031 1.792969-4 4-4h85.960938c7.71875-19.484375 26.53125-32.375 47.691406-32.375h67.683594c2.207031 0 4 1.789063 4 4 0 2.207031-1.792969 4-4 4-2.398438 0-4.351563 1.949219-4.351563 4.347657v27.832031c0 2.398437 1.953125 4.347656 4.351563 4.347656 2.207031 0 4 1.792969 4 4 0 2.210937-1.792969 4-4 4-2.398438 0-4.351563 1.953125-4.351563 4.351563v27.832031c0 2.398437 1.953125 4.347656 4.351563 4.347656 2.207031 0 4 1.792969 4 4s-1.792969 4-4 4c-2.398438 0-4.351563 1.953125-4.351563 4.351563v27.828124c0 2.398438 1.953125 4.351563 4.351563 4.351563 2.207031 0 4 1.789063 4 4 0 2.207031-1.792969 4-4 4-2.398438 0-4.351563 1.949219-4.351563 4.347656v27.832031c0 2.398438 1.953125 4.347657 4.351563 4.347657 2.207031 0 4 1.792969 4 4 0 2.210937-1.792969 4-4.003907 4zm-197.332031-30.863281h89.140625c1.398437 0 2.699219.734374 3.421875 1.929687 7.925781 13.109375 21.792969 20.933594 37.085938 20.933594h56.125c-.507813-1.355469-.792969-2.820313-.792969-4.351563v-27.832031c0-3.214844 1.238281-6.148437 3.257812-8.347656-2.019531-2.199219-3.257812-5.132813-3.257812-8.347657v-27.832031c0-3.21875 1.238281-6.152343 3.257812-8.351562-2.019531-2.199219-3.257812-5.132813-3.257812-8.347657v-27.828124c0-3.214844 1.238281-6.152344 3.257812-8.351563-2.019531-2.199219-3.257812-5.132813-3.257812-8.347656v-27.832031c0-1.527344.28125-2.996094.792969-4.347657h-56.121094c-18.683594 0-35.199219 11.910157-41.097656 29.636719-.542969 1.632812-2.074219 2.738281-3.792969 2.738281h-84.761719zm0 0" fill="#3762cc" data-original="#3762CC" class="" style="fill:#000000" data-old_color="#3762cc"/><path d="m131.085938 278.617188 63.082031-24.644532c1.859375-.726562 3.839843-1.101562 5.839843-1.101562h20.566407c6.148437 0 11.132812 4.984375 11.132812 11.132812v55.027344c0 6.882812-5.578125 12.464844-12.460937 12.464844-12.296875 0-22.265625-9.96875-22.265625-22.265625v-17.046875zm0 0" fill="#f9cfcf" data-original="#F9CFCF" class="" style="fill:#FFDECC" data-old_color="#f9cfcf"/><path d="m196.984375 291.804688-64.507813-13.28125c-23.695312 2.578124-42.136718 22.644531-42.136718 47.027343v32.703125h53.734375c29.222656 0 52.910156-23.6875 52.910156-52.910156zm0 0" fill="#f9cfcf" data-original="#F9CFCF" class="" style="fill:#FFDECC" data-old_color="#f9cfcf"/><path d="m144.074219 362.25h-53.734375c-2.210938 0-4-1.792969-4-4v-32.703125c0-25.175781 18.484375-46.703125 43.21875-50.628906.023437-.007813.046875-.019531.070312-.027344l63.085938-24.644531c2.332031-.910156 4.789062-1.375 7.292968-1.375h20.570313c8.34375 0 15.132813 6.789062 15.132813 15.132812v55.03125c0 9.074219-7.386719 16.460938-16.464844 16.460938-8.882813 0-16.75-4.433594-21.507813-11.207032-7.824219 22.09375-28.925781 37.960938-53.664062 37.960938zm-49.734375-8h49.730468c26.96875 0 48.910157-21.9375 48.910157-48.910156 0-2.207032 1.792969-4 4-4 2.210937 0 4 1.792968 4 4v3.890625c0 10.070312 8.195312 18.261719 18.265625 18.261719 4.664062 0 8.460937-3.796876 8.460937-8.460938v-55.027344c0-3.933594-3.199219-7.132812-7.132812-7.132812h-20.566407c-1.507812 0-2.984374.277344-4.386718.824218l-61.660156 24.089844c-.558594.457032-1.25.765625-2.007813.867188-21.445313 2.824218-37.617187 21.261718-37.617187 42.894531v28.703125zm0 0" fill="#3762cc" data-original="#3762CC" class="" style="fill:#000000" data-old_color="#3762cc"/><path d="m89.5625 306.054688v132h-56v-132zm0 0" fill="#ffea92" data-original="#FFEA92" class="active-path" style="fill:#C12020" data-old_color="#ffea92"/><path d="m89.5625 442.050781h-56c-2.207031 0-4-1.789062-4-4v-132c0-2.207031 1.792969-4 4-4h56c2.207031 0 4 1.792969 4 4v132c0 2.210938-1.789062 4-4 4zm-52-8h48v-124h-48zm0 0" fill="#3762cc" data-original="#3762CC" class="" style="fill:#000000" data-old_color="#3762cc"/><path d="m55.382812 487.085938c-.855468 0-1.71875-.136719-2.558593-.417969l-25.660157-8.617188c-2.160156-.722656-3.914062-2.34375-4.808593-4.441406-.898438-2.097656-.851563-4.484375.117187-6.546875l14.449219-30.710938c.660156-1.402343 2.070313-2.300781 3.621094-2.300781h46.507812c1.273438 0 2.46875.605469 3.222657 1.628907l17.339843 23.546874c1.328125 1.800782 1.839844 4.097657 1.40625 6.292969-.433593 2.199219-1.785156 4.125-3.695312 5.289063l-23.640625 14.355468c-2.167969 1.316407-4.753906 1.53125-7.113282.59375-2.351562-.933593-4.085937-2.875-4.753906-5.320312l-5-18.238281-1.46875 17.550781c-.210937 2.460938-1.511718 4.65625-3.578125 6.015625-1.328125.875-2.847656 1.320313-4.386719 1.320313zm-12.304687-45.035157-13.367187 28.417969 25.660156 8.613281 3.101562-37.03125zm24.507813 0 9.941406 36.273438 23.644531-14.355469 3.21875-2.371094-3.21875 2.371094-16.140625-21.917969zm0 0" fill="#3762cc" data-original="#3762CC" class="" style="fill:#000000" data-old_color="#3762cc"/><path d="m194.234375 255.949219-20.792969-58.347657c-.570312-1.59375-2.078125-2.65625-3.769531-2.65625h-12.65625c-2.796875 0-4.730469 2.792969-3.742187 5.410157l33.371093 88.527343c.589844 1.558594 2.078125 2.589844 3.742188 2.589844h15.207031c1.664062 0 3.15625-1.035156 3.742188-2.59375l33.246093-88.527344c.980469-2.617187-.953125-5.40625-3.742187-5.40625h-12.402344c-1.691406 0-3.199219 1.0625-3.765625 2.652344l-20.902344 58.359375c-1.269531 3.539063-6.277343 3.535157-7.535156-.007812zm0 0" fill="#f9a7a7" data-original="#F9A7A7" class="" style="fill:#FFFFFF" data-old_color="#f9a7a7"/><path d="m292.890625 234.082031c-11.277344-3.117187-18.1875-5.378906-18.1875-12.320312 0-9.402344 8.589844-10.414063 12.28125-10.414063l.699219.007813c8.496094.238281 12.707031 5.167969 13.113281 9.945312l.1875 2.199219h21.449219l-.222656-2.601562c-1.40625-16.742188-14.308594-27.144532-33.671876-27.144532-20.300781 0-33.941406 11.464844-33.941406 28.53125 0 20.507813 16.605469 24.9375 29.949219 28.496094 11.628906 3.097656 18.75 5.390625 18.75 13.078125 0 6.824219-5.402344 11.0625-14.097656 11.0625-8.246094 0-13.335938-4.15625-13.976563-11.40625l-.191406-2.1875h-20.699219v2.398437c0 16.878907 14.339844 28.664063 34.867188 28.664063 22.371093 0 34.078125-14.75 34.078125-29.324219-.003906-20.589844-16.847656-25.246094-30.386719-28.984375zm0 0" fill="#f9a7a7" data-original="#F9A7A7" class="" style="fill:#FFFFFF" data-old_color="#f9a7a7"/><path d="m205.589844 295.472656h-15.203125c-3.3125 0-6.320313-2.082031-7.488281-5.179687l-33.371094-88.527344c-.925782-2.457031-.585938-5.214844.90625-7.371094 1.492187-2.160156 3.953125-3.453125 6.578125-3.453125h12.660156c3.375 0 6.402344 2.136719 7.535156 5.316406l20.796875 58.347657c.007813.03125.015625.042969.015625.042969l20.882813-58.402344c1.136718-3.171875 4.164062-5.304688 7.535156-5.304688h12.402344c2.621094 0 5.082031 1.289063 6.574218 3.449219 1.492188 2.15625 1.835938 4.910156.910157 7.367187l-33.246094 88.527344c-1.164063 3.101563-4.175781 5.1875-7.488281 5.1875zm-48.578125-96.527344 33.375 88.527344h15.203125l33.246094-88.527344h-12.402344l-20.902344 58.359376c-1.152344 3.222656-4.109375 5.300781-7.527344 5.300781-.003906 0-.007812 0-.007812 0-3.425782 0-6.378906-2.085938-7.53125-5.3125l-20.792969-58.347657zm0 0" fill="#3762cc" data-original="#3762CC" class="" style="fill:#000000" data-old_color="#3762cc"/><path d="m289.199219 296.398438c-22.886719 0-38.871094-13.433594-38.871094-32.667969v-2.398438c0-2.210937 1.792969-4 4-4h20.703125c2.070312 0 3.800781 1.582031 3.984375 3.648438l.191406 2.1875c.453125 5.148437 3.8125 7.757812 9.992188 7.757812 3.035156 0 10.097656-.6875 10.097656-7.0625 0-4.070312-2.949219-5.792969-15.78125-9.214843-13.109375-3.496094-32.917969-8.777344-32.917969-32.359376 0-19.457031 15.246094-32.535156 37.941406-32.535156 21.300782 0 36.082032 12.09375 37.65625 30.808594l.21875 2.597656c.097657 1.117188-.28125 2.21875-1.039062 3.042969s-1.828125 1.296875-2.945312 1.296875h-21.449219c-2.078125 0-3.808594-1.59375-3.988281-3.664062l-.183594-2.195313c-.238282-2.789063-2.800782-6.109375-9.242188-6.289063l-.644531-.007812c-8.21875 0-8.21875 4.828125-8.21875 6.414062 0 3.609376 3.996094 5.355469 15.25 8.464844 13.269531 3.667969 33.320313 9.207032 33.320313 32.847656 0 16.5625-13.078126 33.328126-38.074219 33.328126zm-30.816407-31.066407c.898438 13.664063 13.316407 23.066407 30.816407 23.066407 19.746093 0 30.074219-12.742188 30.074219-25.328126 0-16.292968-11.375-20.695312-27.449219-25.136718-.003907 0-.003907 0-.003907 0-10.859374-3-21.117187-5.835938-21.117187-16.171875 0-8.890625 6.238281-14.414063 16.28125-14.414063l.757813.007813c10.113281.285156 15.617187 6.242187 16.828124 12.144531h13.457032c-1.9375-13.65625-12.832032-21.746094-29.488282-21.746094-18.191406 0-29.941406 9.628906-29.941406 24.535156 0 16.1875 11.179688 20.417969 26.976563 24.628907 11.167969 2.980469 21.71875 5.792969 21.71875 16.945312 0 9.148438-7.101563 15.0625-18.097657 15.0625-9.710937 0-16.398437-5.167969-17.777343-13.59375zm0 0" fill="#3762cc" data-original="#3762CC" class="" style="fill:#000000" data-old_color="#3762cc"/></g> </svg>
