<?xml version="1.0"?>
<svg xmlns="http://www.w3.org/2000/svg" xmlns:xlink="http://www.w3.org/1999/xlink" version="1.1" id="Capa_1" x="0px" y="0px" viewBox="0 0 512 512" style="enable-background:new 0 0 512 512;" xml:space="preserve" width="512px" height="512px" class=""><g><polygon style="fill:#1F91BF" points="326.367,157.395 326.367,354.605 438.203,381.838 438.203,130.162 " data-original="#F0303E" class="active-path" data-old_color="#F0303E"/><g>
	<polygon style="fill:#00AAF1" points="346.383,177.411 438.203,130.162 256,0 235.984,132.859  " data-original="#FF515E" class="" data-old_color="#FF515E"/>
	<polygon style="fill:#00AAF1" points="235.984,379.141 256,512 438.203,381.838 346.383,334.589  " data-original="#FF515E" class="" data-old_color="#FF515E"/>
</g><polygon style="fill:#23C4EA" points="256,112.843 235.984,256 256,399.157 346.383,334.589 346.383,177.411 " data-original="#FF8891" class="" data-old_color="#FF8891"/><polygon style="fill:#75E2F8" points="145.601,157.395 145.601,354.605 256,399.157 256,112.843 " data-original="#FFC9CC" class="" data-old_color="#FFC9CC"/><g>
	<polygon style="fill:#23C4EA" points="165.617,334.589 114.591,331 73.797,381.838 256,512 256,399.157  " data-original="#FF8891" class="" data-old_color="#FF8891"/>
	<polygon style="fill:#23C4EA" points="256,112.843 256,0 73.797,130.162 114.591,182.333 165.617,177.411  " data-original="#FF8891" class="" data-old_color="#FF8891"/>
</g><polygon style="fill:#00AAF1" points="165.617,177.411 73.797,130.162 73.797,381.838 165.617,334.589 " data-original="#FF515E" class="" data-old_color="#FF515E"/></g> </svg>
