<svg height="512" viewBox="0 0 58 59" width="512" xmlns="http://www.w3.org/2000/svg"><g id="Page-1" fill="none" fill-rule="evenodd"><g id="033---Crown" fill-rule="nonzero" transform="translate(-1)"><path id="Shape" d="m51 50h-15v-5c-.0049563-3.3116533-2.6883467-5.9950437-6-6-3.3137085 0-6 2.6862915-6 6v5h-15s.84-5.38-3.63-16.01l.01-.04c.20514889.0319501.41238236.0486624.62.05 1.51365913.0029386 2.89768719-.8538407 3.57-2.21 2.57 3.42 6.7 7.83 10.43 7.21 4.06-.67 6.74-7.29 8.06-11.5 1.2074422.6665908 2.6725578.6665908 3.88 0 1.32 4.21 4 10.83 8.06 11.5 3.73.62 7.86-3.79 10.43-7.21.6723128 1.3561593 2.0563409 2.2129386 3.57 2.21.2076176-.0013376.4148511-.0180499.62-.05l.01.04c-4.47 10.63-3.63 16.01-3.63 16.01z" fill="#ffdc00"/><path id="Shape" d="m37 39c.7605287.1126571 1.5368159.0476242 2.268-.19-3.652-1.285-6.089-7.358-7.328-11.31-.5933054.3297324-1.2612282.5018774-1.94.5-.3150594-.0011923-.6288841-.0394554-.935-.114 1.359 4.214 3.995 10.464 7.935 11.114z" fill="#fec108"/><path id="Shape" d="m17 39c.2490765-.0418534.4940113-.1054294.732-.19-3.05-.92-6.106-4.283-8.162-7.02-.36245942.7196042-.93464213 1.312359-1.641 1.7 2.535 3.01 5.942 6.03 9.071 5.51z" fill="#fec108"/><path id="Shape" d="m27 39c-3.3137085 0-6 2.6862915-6 6v5h3v-5c.0043159-2.7324612 1.8543017-5.1168873 4.5-5.8-.4895679-.1296421-.9935675-.196842-1.5-.2z" fill="#fec108"/><path id="Shape" d="m54.63 33.99-.01-.04c-.2051489.0319501-.4123824.0486624-.62.05-1.5136591.0029386-2.8976872-.8538407-3.57-2.21-.414.551-.872 1.128-1.359 1.7.588964.3317762 1.2530215.5073436 1.929.51.2076176-.0013376.4148511-.0180499.62-.05l.01.04c-4.47 10.63-3.63 16.01-3.63 16.01h3s-.84-5.38 3.63-16.01z" fill="#fec108"/><path id="Shape" d="m10 30c.0024975.6225408-.14499568 1.2365239-.43 1.79-.67231281 1.3561593-2.05634087 2.2129386-3.57 2.21-.20761764-.0013376-.41485111-.0180499-.62-.05-1.96943628-.3050252-3.41390527-2.0132712-3.38742848-4.0060127.0264768-1.9927415 1.51582149-3.662007 3.49266663-3.9145995 1.97684513-.2525925 3.83806912.9885523 4.36476185 2.9106122.10084644.3442529.1513695.7012825.15 1.06z" fill="#ff9801"/><path id="Shape" d="m34 24c-.002067 1.4536613-.7900985 2.7925498-2.06 3.5-1.2074422.6665908-2.6725578.6665908-3.88 0-1.7049608-.9455607-2.4798692-2.982568-1.8344557-4.8222468.6454134-1.8396787 2.523119-2.9460709 4.4451286-2.6191835 1.9220097.3268873 3.3283798 1.9918212 3.3293271 3.9414303z" fill="#ff9801"/><path id="Shape" d="m50.43 31.79c-2.57 3.42-6.7 7.83-10.43 7.21-4.06-.67-6.74-7.29-8.06-11.5 1.5944549-.8842746 2.3891781-2.734876 1.9324815-4.4999981-.4566966-1.7651222-2.049235-2.9980585-3.8724815-2.9980585s-3.4157849 1.2329363-3.8724815 2.9980585c-.4566966 1.7651221.3380266 3.6157235 1.9324815 4.4999981-1.32 4.21-4 10.83-8.06 11.5-3.73.62-7.86-3.79-10.43-7.21.28500432-.5534761.4324975-1.1674592.43-1.79.0013695-.3587175-.04915356-.7157471-.15-1.06l.11-.03c3.5695268-7.8615407 11.4060354-12.9098527 20.04-12.9098527s16.4704732 5.048312 20.04 12.9098527l.11.03c-.1008464.3442529-.1513695.7012825-.15 1.06-.0024975.6225408.1449957 1.2365239.43 1.79z" fill="#ef314c"/><path id="Shape" d="m26 24c.0032957-1.6269922.9917334-3.08988 2.5-3.7-1.9530666-.7670588-4.1668886.1054432-5.0714657 1.9987441-.9045772 1.893301-.1924014 4.1637797 1.6314657 5.2012559-1.239 3.952-3.676 10.025-7.328 11.31.7311841.2376242 1.5074713.3026571 2.268.19 4.06-.67 6.74-7.29 8.06-11.5-1.2699015-.7074502-2.057933-2.0463387-2.06-3.5z" fill="#bb193b"/><path id="Shape" d="m50 30c-.0013695-.3587175.0491536-.7157471.15-1.06l-.11-.03c-3.5698819-7.8612539-11.4061498-12.9094684-20.04-12.91-.5 0-1 .022-1.5.056 8.0725974.5519709 15.1917927 5.4877928 18.54 12.854l.11.03c-.1008464.3442529-.1513695.7012825-.15 1.06-.0024975.6225408.1449957 1.2365239.43 1.79-2.056 2.737-5.112 6.1-8.162 7.02.2379887.0845706.4829235.1481466.732.19 3.73.62 7.86-3.79 10.43-7.21-.2850043-.5534761-.4324975-1.1674592-.43-1.79z" fill="#bb193b"/><path id="Shape" d="m58 30c.0017152 1.9700774-1.4333404 3.6471395-3.38 3.95-.2051489.0319501-.4123824.0486624-.62.05-1.5136591.0029386-2.8976872-.8538407-3.57-2.21-.2850043-.5534761-.4324975-1.1674592-.43-1.79-.0013695-.3587175.0491536-.7157471.15-1.06.5404805-1.918133 2.4104447-3.145846 4.3853467-2.8791713s3.4522715 1.9463843 3.4646533 3.9391713z" fill="#ff9801"/><rect id="Rectangle-path" fill="#f5f5f5" height="8" rx="3" width="48" x="6" y="50"/><path id="Shape" d="m51 50h-3c1.6568542 0 3 1.3431458 3 3v2c0 1.6568542-1.3431458 3-3 3h3c1.6568542 0 3-1.3431458 3-3v-2c0-1.6568542-1.3431458-3-3-3z" fill="#cfd8dc"/><path id="Shape" d="m36 45v5h-12v-5c0-3.3137085 2.6862915-6 6-6 3.3116533.0049563 5.9950437 2.6883467 6 6z" fill="#f44335"/><circle id="Oval" cx="30" cy="45" fill="#02a9f4" r="2"/><path id="Shape" d="m36.42 8.83c-1.1024421.73801415-2.1246699 1.589312-3.05 2.54-1.4166576 1.3068969-2.5618175 2.8802174-3.37 4.63-.8081825-1.7497826-1.9533424-3.3231031-3.37-4.63-.9253301-.950688-1.9475579-1.80198585-3.05-2.54-.284632-.17997264-.4571915-.49324264-.4571915-.83s.1725595-.65002736.4571915-.83c1.1024421-.73801415 2.1246699-1.58931202 3.05-2.54.950688-.92533014 1.8019858-1.94755789 2.54-3.05.1799726-.28463198.4932426-.45719146.83-.45719146s.6500274.17255948.83.45719146c.7380142 1.10244211 1.589312 2.12466986 2.54 3.05.9253301.95068798 1.9475579 1.80198585 3.05 2.54.284632.17997264.4571915.49324264.4571915.83s-.1725595.65002736-.4571915.83z" fill="#ffdc00"/><path id="Shape" d="m36.42 7.17c-1.1024421-.73801415-2.1246699-1.58931202-3.05-2.54-.950688-.92533014-1.8019858-1.94755789-2.54-3.05-.1799726-.28463198-.4932426-.45719146-.83-.45719146s-.6500274.17255948-.83.45719146c-.2.3-.425.615-.67.935.5746242.7466118 1.1994015 1.45324497 1.87 2.115.9253301.95068798 1.9475579 1.80198585 3.05 2.54.284632.17997264.4571915.49324264.4571915.83s-.1725595.65002736-.4571915.83c-1.1024421.73801415-2.1246699 1.589312-3.05 2.54-.6710133.6613622-1.2958165 1.3680246-1.87 2.115.6153575.7639188 1.120296 1.6105324 1.5 2.515.8081825-1.7497826 1.9533424-3.3231031 3.37-4.63.9253301-.950688 1.9475579-1.80198585 3.05-2.54.284632-.17997264.4571915-.49324264.4571915-.83s-.1725595-.65002736-.4571915-.83z" fill="#fec108"/><circle id="Oval" cx="30" cy="8" fill="#f44335" r="2"/><path id="Shape" d="m13.6 31.565c-.3399878-.0000941-.6566369-.1729232-.840631-.4588216-.1839941-.2858985-.210124-.6456953-.069369-.9551784 1.2659889-2.7731977 3.1776189-5.2029395 5.575-7.086.2806224-.2251534.660563-.2822048.9949362-.1493982.3343731.1328065.5716299.4349968.6212954.7913341.0496655.3563374-.0959171.711887-.3812316.9310641-2.1449815 1.6854625-3.8555946 3.8596452-4.989 6.341-.1624233.3571263-.5186731.5862837-.911.586z" fill="#f5f5f5"/><circle id="Oval" cx="22" cy="22" fill="#f5f5f5" r="1"/><g fill="#000"><path id="Shape" d="m54 25c-1.5079665.0053737-2.931938.6951041-3.871 1.875-3.7819943-6.8119107-10.7457974-11.2556271-18.517-11.816.7104182-1.0821962 1.5366261-2.0837722 2.464-2.987.8795314-.8970353 1.8489618-1.7012639 2.893-2.4.5656791-.36619561.9072107-.99413645.9072107-1.668s-.3415316-1.30180439-.9072107-1.668c-1.0470239-.70101976-2.0188463-1.50830259-2.9-2.409-.8972372-.87898155-1.7014868-1.8481023-2.4-2.892-.3661956-.56567912-.9941364-.90721067-1.668-.90721067s-1.3018044.34153155-1.668.90721067c-.7007051 1.04697619-1.5076513 2.01879686-2.408 2.9-.8790685.89901372-1.8485329 1.70494598-2.893 2.405-.5656791.36619561-.9072107.99413645-.9072107 1.668s.3415316 1.30180439.9072107 1.668c1.046776.7009731 2.0185701 1.5078974 2.9 2.408.9257138.902484 1.7508672 1.9026599 2.461 2.983-7.7714066.5570494-14.737083 4.9977527-18.522 11.808-1.34341442-1.6815137-3.61475109-2.3102257-5.63159812-1.558841-2.01684702.7513846-3.3231599 2.7129644-3.23889859 4.8635808.08426132 2.1506164 1.54004386 4.0039771 3.60949671 4.5952602 3.22 7.8 3.484 12.629 3.445 14.346-1.79008461.4352241-3.05142097 2.0367703-3.055 3.879v2c0 2.209139 1.790861 4 4 4h42c2.209139 0 4-1.790861 4-4v-2c-.0053051-1.8404427-1.2657586-3.4397411-3.054-3.875-.039-1.721.226-6.548 3.444-14.346 2.3924765-.6857004 3.9129079-3.0306571 3.562667-5.4946904-.350241-2.4640333-2.4638796-4.2924385-4.952667-4.2843096zm-29.878-16.992c1.1608993-.77599079 2.238609-1.66972579 3.216-2.667.9984977-.97384273 1.888373-2.05316015 2.654-3.219.7753938 1.16075537 1.6688183 2.23815958 2.666 3.215.9751018.99541644 2.0501034 1.88778841 3.208 2.663-1.1549995.77391206-2.2273116 1.6646013-3.2 2.658-.9959932.9761144-1.8893269 2.0517337-2.666 3.21-.7739076-1.1568441-1.6645803-2.2311469-2.658-3.206-.9746078-.99806319-2.0542072-1.88789447-3.22-2.654zm5.878 8.992c8.1960498.0145712 15.6392428 4.7826777 19.079 12.222-.0471371.2567976-.0735555.5169688-.079.778.0063368.554306.1057189 1.103612.294 1.625-3.445 4.456-6.751 6.789-9.131 6.388-2.507-.413-5.057-4.1-7.047-10.134 1.6620377-1.3244234 2.3052593-3.5547642 1.6037226-5.5608333-.7015367-2.006069-2.5945246-3.3494792-4.7197226-3.3494792s-4.0181859 1.3434102-4.7197226 3.3494792c-.7015367 2.0060691-.0583151 4.2364099 1.6037226 5.5608333-1.99 6.036-4.54 9.721-7.048 10.135-2.372.4-5.685-1.933-9.13-6.389.1882811-.521388.2876632-1.070694.294-1.625-.0054445-.2610312-.0318629-.5212024-.079-.778 3.4397572-7.4393223 10.8829502-12.2074288 19.079-12.222zm-3 7c0-1.6568542 1.3431458-3 3-3s3 1.3431458 3 3-1.3431458 3-3 3-3-1.3431458-3-3zm-24 6c0-1.6568542 1.34314575-3 3-3s3 1.3431458 3 3-1.34314575 3-3 3c-.79564947 0-1.55871121-.3160705-2.12132034-.8786797-.56260914-.5626091-.87867966-1.3256708-.87867966-2.1213203zm50 23v2c0 1.1045695-.8954305 2-2 2h-42c-1.1045695 0-2-.8954305-2-2v-2c0-1.1045695.8954305-2 2-2h42c1.1045695 0 2 .8954305 2 2zm-18-4h-10v-4c0-2.7614237 2.2385763-5 5-5s5 2.2385763 5 5zm14.938 0h-12.938v-4c0-3.8659932-3.1340068-7-7-7s-7 3.1340068-7 7v4h-12.938c.027-2.034-.336-6.749-3.241-14.083 1.05985903-.1752353 2.0346649-.6884202 2.779-1.463 8.553 10.646 14.851 7.938 19.088-4.654.854943.2626909 1.769057.2626909 2.624 0 1.663 4.941 4.421 10.507 8.524 11.183 3.992.664 8.033-3.381 10.565-6.532.7438097.7747388 1.7183592 1.2879734 2.778 1.463-2.905 7.337-3.268 12.052-3.241 14.086zm4.062-16c-1.6568542 0-3-1.3431458-3-3s1.3431458-3 3-3 3 1.3431458 3 3-1.3431458 3-3 3z"/><path id="Shape" d="m30 42c-1.6568542 0-3 1.3431458-3 3s1.3431458 3 3 3 3-1.3431458 3-3-1.3431458-3-3-3zm0 4c-.5522847 0-1-.4477153-1-1s.4477153-1 1-1 1 .4477153 1 1-.4477153 1-1 1z"/><circle id="Oval" cx="10" cy="54" r="1"/><circle id="Oval" cx="14" cy="54" r="1"/><circle id="Oval" cx="18" cy="54" r="1"/><circle id="Oval" cx="22" cy="54" r="1"/><circle id="Oval" cx="26" cy="54" r="1"/><circle id="Oval" cx="30" cy="54" r="1"/><circle id="Oval" cx="34" cy="54" r="1"/><circle id="Oval" cx="38" cy="54" r="1"/><circle id="Oval" cx="42" cy="54" r="1"/><circle id="Oval" cx="46" cy="54" r="1"/><circle id="Oval" cx="50" cy="54" r="1"/><path id="Shape" d="m33 8c0-1.65685425-1.3431458-3-3-3s-3 1.34314575-3 3 1.3431458 3 3 3 3-1.34314575 3-3zm-4 0c0-.55228475.4477153-1 1-1s1 .44771525 1 1-.4477153 1-1 1-1-.44771525-1-1z"/><path id="Shape" d="m17 45h-3.237c-.1-.68-.206-1.373-.346-2.083-.0687818-.3510025-.3197964-.6385415-.658298-.7540851-.3385016-.1155437-.7129398-.0414958-.9819823.1941942-.2690426.23569-.391717.5971288-.3217197.9478909.191.966.339 1.912.441 2.809.0765908.4947656.4927381.8660712.993.886h4.111c.5522847 0 1-.4477153 1-1s-.4477153-1-1-1z"/></g></g></g></svg>