<?xml version="1.0"?>
<svg xmlns="http://www.w3.org/2000/svg" xmlns:xlink="http://www.w3.org/1999/xlink" xmlns:svgjs="http://svgjs.com/svgjs" version="1.1" width="512" height="512" x="0" y="0" viewBox="0 0 64 64" style="enable-background:new 0 0 512 512" xml:space="preserve" class=""><g><g xmlns="http://www.w3.org/2000/svg"><g><g><path d="m15.46 17.28 11.91 10.42-3.52-.64-15.49-2.81c1.64-2.9 4.08-5.33 7.1-6.97z" fill="#969faa" data-original="#969faa" style=""/></g><g><path d="m46 44-1.13 2.54c-1.61 3.62-4.79 6.27-8.59 7.21 1.09-1.6 1.72-3.53 1.72-5.56v-.55c0-.95-.67-1.77-1.61-1.96l-2.52-.51c-.5-.1-.99.19-1.15.67l-.32.97c-.24.71-.91 1.19-1.66 1.19-.96 0-1.74-.78-1.74-1.74v-1.26c0-.55-.45-1-1-1h-4.28c-.43 0-.81.28-.95.68l-1.73 5.19-13.85-1.85c-.13-.01-.25-.02-.38-.02-.28 0-.56.04-.81.12v-3.12l-1.94-.49c-1.21-.3-2.06-1.38-2.06-2.63 0-.56.22-1.1.62-1.5l3.38-3.38 11.52 2.88c.32.08.65.12.98.12 1 0 1.93-.37 2.64-.99.72-.62 1.22-1.49 1.36-2.48l.78-5.44 10 1.78z" fill="#969faa" data-original="#969faa" style=""/></g><g><path d="m38 47.64v.55c0 2.03-.63 3.96-1.72 5.56-1.12 1.62-2.72 2.91-4.65 3.64-1.05.39-1.91 1.17-2.41 2.16-.38.75-.94 1.36-1.63 1.79-.69.42-1.49.66-2.32.66h-19.27c-2.21 0-4-1.79-4-4 0-.55.22-1.05.59-1.41.36-.37.86-.59 1.41-.59h12.12c1.72 0 3.25-1.1 3.79-2.74l1.13-3.39 1.73-5.19c.14-.4.52-.68.95-.68h4.28c.55 0 1 .45 1 1v1.26c0 .96.78 1.74 1.74 1.74.75 0 1.42-.48 1.66-1.19l.32-.97c.16-.48.65-.77 1.15-.67l2.52.51c.94.19 1.61 1.01 1.61 1.96z" fill="#ccd1d9" data-original="#ccd1d9" style=""/></g><g><circle cx="27" cy="52" fill="#e6e9ed" r="2" data-original="#e6e9ed" style=""/></g><g><path d="m21.04 49.87-1.13 3.39c-.54 1.64-2.07 2.74-3.79 2.74h-12.12v-5.19c0-1.27.84-2.34 2-2.69.25-.08.53-.12.81-.12.13 0 .25.01.38.02z" fill="#e6e9ed" data-original="#e6e9ed" style=""/></g><g><path d="m33.28 32.87-10-1.78.57-4.03 3.52.64h.01z" fill="#aab2bd" data-original="#aab2bd" style=""/></g><g><path d="m23.28 31.09-.78 5.44c-.14.99-.64 1.86-1.36 2.48-.71.62-1.64.99-2.64.99-.33 0-.66-.04-.98-.12l-11.52-2.88v-3.82c0-3.19.84-6.26 2.36-8.93l15.49 2.81z" fill="#087a99" data-original="#69d6f4" style="" class=""/></g><g><path d="m57 32 2 3-13 9-12.72-11.13-5.9-5.17h-.01l-11.91-10.42-1.46-1.28 8-10 3 2-.62 2.48c-.23.91.14 1.87.92 2.39l.35.23c.8.53 1.86.49 2.62-.12l3.73-2.98 3 2-1.91 3.18c-.21.36-.32.75-.32 1.14 0 .72.36 1.43 1 1.86.74.5 1.72.5 2.46 0l4.77-3.18 2 2-2.28 4.57c-.43.85-.26 1.89.41 2.56l.74.74c.67.67 1.71.84 2.56.41l4.57-2.28 2 2-2.99 4.48c-.59.88-.47 2.06.28 2.81l.78.78c.58.58 1.41.79 2.19.57z" fill="#fcd770" data-original="#fcd770" style="" class=""/></g><g><circle cx="60" cy="32" fill="#ef324d" r="2" data-original="#ffc729" style="" class=""/></g><g><circle cx="52" cy="22" fill="#ef324d" r="2" data-original="#ffc729" style="" class=""/></g><g><circle cx="44" cy="14" fill="#ef324d" r="2" data-original="#ffc729" style="" class=""/></g><g><circle cx="35" cy="8" fill="#ef324d" r="2" data-original="#ffc729" style="" class=""/></g><g><circle cx="25" cy="4" fill="#ef324d" r="2" data-original="#ffc729" style="" class=""/></g></g><g><path d="m27 49c-1.654 0-3 1.346-3 3s1.346 3 3 3 3-1.346 3-3-1.346-3-3-3zm0 4c-.551 0-1-.448-1-1s.449-1 1-1 1 .448 1 1-.449 1-1 1z" fill="#000000" data-original="#000000" style="" class=""/><path d="m63 32c0-1.654-1.346-3-3-3-1.265 0-2.343.789-2.784 1.898l-6.231 1.781c-.428.121-.889.002-1.204-.312l-.784-.784c-.412-.412-.476-1.062-.153-1.546l3.372-5.058c1.552-.114 2.784-1.399 2.784-2.979 0-1.654-1.346-3-3-3-1.612 0-2.921 1.28-2.987 2.876l-5.025 2.513c-.472.237-1.041.144-1.415-.229l-.731-.731c-.374-.374-.466-.942-.229-1.415l2.513-5.025c1.594-.068 2.874-1.377 2.874-2.989 0-1.654-1.346-3-3-3-1.58 0-2.865 1.232-2.978 2.784l-5.342 3.561c-.413.275-.946.275-1.359 0-.545-.364-.708-1.088-.371-1.65l2.399-3.999-1.085-.723c1.529-.135 2.736-1.409 2.736-2.973 0-1.654-1.346-3-3-3s-3 1.346-3 3c0 .316.063.614.153.9l-.207-.138-4.301 3.44c-.417.334-.999.36-1.446.062l-.34-.227c-.43-.287-.635-.816-.509-1.317l.791-3.162-.878-.586c1.529-.134 2.737-1.408 2.737-2.972 0-1.654-1.346-3-3-3s-3 1.346-3 3c0 .316.062.614.153.9l-.361-.241-9.17 11.463 1.146 1.003c-5.441 3.495-8.768 9.522-8.768 16.056v3.405l-3.086 3.086c-.581.581-.914 1.385-.914 2.207 0 1.708 1.158 3.19 2.815 3.605l1.185.297v1.699c-1.185.648-2 1.891-2 3.334v4.371c-1.161.413-2 1.513-2 2.815 0 2.757 2.243 5 5 5h19.266c2.068 0 3.927-1.149 4.852-2.999.388-.775 1.048-1.37 1.86-1.675 1.994-.748 3.671-2.062 4.889-3.713 3.989-1.103 7.23-3.871 8.919-7.669l1.014-2.283 13.576-9.399-.188-.282c1.566-.099 2.812-1.39 2.812-2.98zm-28-25c.551 0 1 .449 1 1s-.449 1-1 1-1-.449-1-1 .449-1 1-1zm-10-4c.551 0 1 .449 1 1s-.449 1-1 1-1-.449-1-1 .449-1 1-1zm27 18c.551 0 1 .449 1 1s-.449 1-1 1-1-.449-1-1 .449-1 1-1zm-8-8c.551 0 1 .449 1 1s-.449 1-1 1-1-.449-1-1 .449-1 1-1zm-28.653 5.507 8.648 7.567-14.009-2.547c1.379-2.014 3.198-3.732 5.361-5.02zm-7.887 10.769 14.688 2.623-.642 4.491c-.213 1.488-1.506 2.61-3.009 2.61-.25 0-.498-.03-.737-.09l-10.76-2.69v-3.039c0-1.333.163-2.64.46-3.905zm.57-1.929c.247-.681.534-1.344.864-1.986l13.829 2.514-.292 2.043zm16.661.886 2.236.407 2.989 2.615-5.516-.985zm-17.638 20.783 1.947.259v2.017l-4-.235v-.244c0-1.079.966-1.943 2.053-1.797zm-2.053 5.984v-1.94l4 .235v1.705zm6-1.587 4 .235v1.352h-4zm6 .353 1.47.086c-.376.478-.887.832-1.47 1.011zm2.313-1.867-2.313-.136v-1.421l2.711.362zm-4.313-.253-4-.235v-1.868l4 .533zm16.275 4.807c-1.286.483-2.333 1.426-2.947 2.653-.583 1.168-1.757 1.894-3.062 1.894h-19.266c-1.654 0-3-1.346-3-3 0-.552.449-1 1-1h12.117c2.155 0 4.062-1.374 4.743-3.419l2.861-8.581h4.279v1.257c0 1.513 1.231 2.743 2.744 2.743 1.183 0 2.229-.754 2.603-1.876l.323-.971 2.527.506c.465.093.803.505.803.981v.554c0 3.656-2.3 6.976-5.725 8.259zm7.038-4.504c.442-1.184.687-2.451.687-3.756v-.553c0-1.426-1.015-2.663-2.412-2.941l-2.527-.506c-.988-.199-1.971.375-2.29 1.329l-.323.97c-.101.304-.384.508-.704.508-.411 0-.744-.333-.744-.743v-1.257c0-1.103-.897-2-2-2h-4.279c-.862 0-1.625.55-1.897 1.367l-1.468 4.404-13.037-1.738c-.106-.014-.213-.016-.319-.021v-2.794l-2.699-.674c-.766-.191-1.301-.876-1.301-1.665 0-.295.12-.584.328-.793l2.979-2.979 10.968 2.742c.398.1.81.15 1.222.15 2.491 0 4.636-1.859 4.988-4.326l.632-4.423 8.716 1.557 11.954 10.459-.828 1.865c-1.153 2.593-3.154 4.622-5.646 5.818zm7.759-9.215-30.694-26.857 6.83-8.537 1.651 1.1-.449 1.795c-.33 1.318.209 2.711 1.341 3.466l.34.227c1.174.783 2.704.715 3.804-.165l3.159-2.526 1.598 1.065-1.417 2.363c-.887 1.479-.458 3.386.977 4.343 1.087.725 2.491.725 3.578 0l4.083-2.723.911.911-1.96 3.921c-.622 1.244-.379 2.74.604 3.723l.731.731c.983.983 2.479 1.226 3.723.604l3.921-1.96.911.911-2.533 3.8c-.85 1.274-.681 2.986.403 4.07l.784.784c.827.828 2.041 1.144 3.167.821l5.039-1.44 1.05 1.575zm13.928-9.734c-.551 0-1-.449-1-1s.449-1 1-1 1 .449 1 1-.449 1-1 1z" fill="#000000" data-original="#000000" style="" class=""/></g></g></g></svg>
