<?xml version="1.0"?>
<svg xmlns="http://www.w3.org/2000/svg" xmlns:xlink="http://www.w3.org/1999/xlink" xmlns:svgjs="http://svgjs.com/svgjs" version="1.1" width="512" height="512" x="0" y="0" viewBox="0 0 512 512.00026" style="enable-background:new 0 0 512 512" xml:space="preserve" class=""><g><path xmlns="http://www.w3.org/2000/svg" d="m504.441406 219.453125-79.273437-57.113281c-.171875-.167969-.386719-.289063-.617188-.355469-2.992187-2.03125-6.535156-3.109375-10.152343-3.085937h-316.910157c-3.859375 0-7.625 1.203124-10.769531 3.441406l-79.273438 57.113281c-5.976562 4.269531-8.714843 11.777344-6.882812 18.890625.660156 2.941406 2.09375 5.652344 4.148438 7.859375l237.726562 259.882813c3.257812 3.613281 7.847656 5.75 12.710938 5.914062h.796874c5.132813.027344 10.042969-2.121094 13.503907-5.914062l237.726562-259.882813c1.207031-1.238281 2.191407-2.671875 2.914063-4.238281.257812-.476563.464844-.980469.617187-1.5 2.921875-7.617188.347657-16.242188-6.265625-21.011719zm0 0" fill="#aed3db" data-original="#aed3db" style=""/><path xmlns="http://www.w3.org/2000/svg" d="m255.589844 510.675781-.441406 1.324219c-4.863282-.164062-9.453126-2.300781-12.710938-5.914062l-237.726562-259.882813c-2.054688-2.207031-3.488282-4.917969-4.148438-7.859375h175.933594zm0 0" fill="#3f84bf" data-original="#5496ce" style="" class=""/><path xmlns="http://www.w3.org/2000/svg" d="m176.496094 238.34375h-175.933594c-1.832031-7.113281.90625-14.621094 6.882812-18.890625l79.273438-57.113281zm0 0" fill="#bddcf3" data-original="#bddcf3" style="" class=""/><path xmlns="http://www.w3.org/2000/svg" d="m255.945312 158.898438-79.449218 79.445312-89.777344-76.003906c3.144531-2.238282 6.910156-3.441406 10.769531-3.441406zm0 0" fill="#336a93" data-original="#336a93" style="" class=""/><path xmlns="http://www.w3.org/2000/svg" d="m424.550781 161.984375-.175781.355469-89.777344 76.003906-78.652344-79.449219 158.453126.003907c3.617187-.023438 7.160156 1.054687 10.152343 3.085937zm0 0" fill="#336a93" data-original="#336a93" style="" class=""/><path xmlns="http://www.w3.org/2000/svg" d="m510.707031 240.464844c-.152343.519531-.359375 1.023437-.617187 1.5l-6.972656-3.621094h-168.519532l89.777344-76.003906.175781-.355469c.230469.066406.445313.1875.617188.355469l79.273437 57.113281c6.613282 4.769531 9.1875 13.394531 6.265625 21.011719zm0 0" fill="#bddcf3" data-original="#bddcf3" style="" class=""/><path xmlns="http://www.w3.org/2000/svg" d="m510.089844 241.964844c-.722656 1.566406-1.707032 3-2.914063 4.238281l-237.726562 259.882813c-3.460938 3.792968-8.371094 5.941406-13.503907 5.914062l-.355468-1.324219 79.007812-272.332031h168.519532zm0 0" fill="#3f84bf" data-original="#5496ce" style="" class=""/><path xmlns="http://www.w3.org/2000/svg" d="m314.761719 91.355469-58.816407-53.636719-58.820312 53.636719c-7.132812 5.964843-17.367188 6.425781-25.007812 1.132812l-75.070313-54.769531v71.558594c1.019531 8.773437 8.859375 15.128906 17.65625 14.308594h282.480469c8.796875.820312 16.640625-5.535157 17.65625-14.308594v-71.558594l-75.035156 54.734375c-7.640626 5.324219-17.898438 4.875-25.042969-1.097656zm0 0" fill="#f4cd1e" data-original="#f4cd1e" style=""/><g xmlns="http://www.w3.org/2000/svg" fill="#cd4f38"><path d="m114.703125 17.65625c0 9.75-7.90625 17.652344-17.65625 17.652344s-17.65625-7.902344-17.65625-17.652344 7.90625-17.65625 17.65625-17.65625 17.65625 7.90625 17.65625 17.65625zm0 0" fill="#ef324d" data-original="#cd4f38" style="" class=""/><path d="m273.597656 17.65625c0 9.75-7.902344 17.652344-17.652344 17.652344-9.753906 0-17.65625-7.902344-17.65625-17.652344s7.902344-17.65625 17.65625-17.65625c9.75 0 17.652344 7.90625 17.652344 17.65625zm0 0" fill="#ef324d" data-original="#cd4f38" style="" class=""/><path d="m432.496094 17.65625c0 9.75-7.90625 17.652344-17.65625 17.652344s-17.65625-7.902344-17.65625-17.652344 7.90625-17.65625 17.65625-17.65625 17.65625 7.90625 17.65625 17.65625zm0 0" fill="#ef324d" data-original="#cd4f38" style="" class=""/></g><path xmlns="http://www.w3.org/2000/svg" d="m334.597656 238.34375-79.007812 272.332031-79.09375-272.332031zm0 0" fill="#336a93" data-original="#336a93" style="" class=""/><path xmlns="http://www.w3.org/2000/svg" d="m334.597656 238.34375h-158.101562l79.449218-79.445312zm0 0" fill="#3f84bf" data-original="#5496ce" style="" class=""/></g></svg>
