<?xml version="1.0" encoding="UTF-8"?>
<svg xmlns="http://www.w3.org/2000/svg" xmlns:xlink="http://www.w3.org/1999/xlink" xmlns:svgjs="http://svgjs.com/svgjs" version="1.1" width="512" height="512" x="0" y="0" viewBox="0 0 512 512" style="enable-background:new 0 0 512 512" xml:space="preserve" class="">
  <g>
    <g xmlns="http://www.w3.org/2000/svg">
      <path d="m414.42 114.44-21.09 23.21-137.33-65.05-137.6 65.18-20.82-23.34 152-72c4.06-1.92 8.78-1.92 12.84 0z" fill="#113242" data-original="#4d628c" style="" class=""/>
      <path d="m393.33 137.65 21.09-23.21-152-72c-2.03-.96-4.225-1.44-6.42-1.44v31.6z" fill="#113242" data-original="#283d66" style="" class=""/>
      <path d="m256 512c-8.284 0-15-6.716-15-15v-482c0-8.284 6.716-15 15-15s15 6.716 15 15v482c0 8.284-6.716 15-15 15z" fill="#313f46" data-original="#865240" style="" class=""/>
      <path d="m271 497v-482c0-8.284-6.716-15-15-15v512c8.284 0 15-6.716 15-15z" fill="#2b353a" data-original="#5c3629" style="" class=""/>
      <path d="m288 30h-64c-8.284 0-15-6.716-15-15s6.716-15 15-15h64c8.284 0 15 6.716 15 15s-6.716 15-15 15z" fill="#313f46" data-original="#bc8173" style="" class=""/>
      <path d="m288 0h-32v30h32c8.284 0 15-6.716 15-15s-6.716-15-15-15z" fill="#313f46" data-original="#865240" style="" class=""/>
      <path d="m408 113h-304c-8.284 0-15 6.716-15 15v264c0 6.241 3.864 11.83 9.703 14.034l152 57.366c1.707.644 3.502.966 5.297.966s3.59-.322 5.297-.966l152-57.366c5.839-2.204 9.703-7.793 9.703-14.034v-264c0-8.284-6.716-15-15-15z" fill="#56aad3" data-original="#5ed8d3" style="" class=""/>
      <path d="m408 113h-152v351.366c1.795 0 3.59-.322 5.297-.966l152-57.366c5.839-2.204 9.703-7.793 9.703-14.034v-264c0-8.284-6.716-15-15-15z" fill="#2a8dbd" data-original="#31bebe" style="" class=""/>
      <path d="m312 367h-112c-7.239 0-13.445-5.17-14.753-12.29l-16-87.111c-1.035-5.632 1.228-11.362 5.831-14.768 4.604-3.406 10.744-3.895 15.827-1.259l34.29 17.781 17.293-35.868c2.502-5.187 7.752-8.485 13.512-8.485s11.01 3.298 13.512 8.485l17.293 35.868 34.29-17.781c5.086-2.635 11.226-2.148 15.827 1.259 4.604 3.406 6.866 9.135 5.831 14.768l-16 87.111c-1.308 7.12-7.514 12.29-14.753 12.29z" fill="#fed843" data-original="#fed843" style="" class=""/>
      <path d="m312 367c7.239 0 13.445-5.17 14.753-12.29l16-87.111c1.035-5.632-1.228-11.362-5.831-14.768-4.602-3.407-10.741-3.894-15.827-1.259l-34.29 17.781-17.293-35.868c-2.502-5.187-7.752-8.485-13.512-8.485v142z" fill="#fabe2c" data-original="#fabe2c" style="" class=""/>
      <circle cx="256" cy="191.997" fill="#fabe2c" r="15" data-original="#fabe2c" style="" class=""/>
      <path d="m271 191.997c0-8.284-6.716-15-15-15v30c8.284 0 15-6.715 15-15z" fill="#e19723" data-original="#fd9025" style="" class=""/>
      <circle cx="160" cy="224.001" fill="#fabe2c" r="15" data-original="#fabe2c" style="" class=""/>
      <circle cx="352" cy="224.001" fill="#e19723" r="15" data-original="#fd9025" style="" class=""/>
    </g>
  </g>
</svg>
