<?xml version="1.0"?>
<svg xmlns="http://www.w3.org/2000/svg" xmlns:xlink="http://www.w3.org/1999/xlink" xmlns:svgjs="http://svgjs.com/svgjs" version="1.1" width="512" height="512" x="0" y="0" viewBox="0 0 512 512.24125" style="enable-background:new 0 0 512 512" xml:space="preserve" class=""><g><path xmlns="http://www.w3.org/2000/svg" d="m432.761719 37.957031c-7.167969 57.859375-33.964844 189.441407-132.949219 284.160157l-60.757812 47.019531c-28.097657 17.148437-58.265626 30.65625-89.769532 40.191406h-.085937l-28.929688 21.335937-35.070312 30.035157-9.730469-11.433594-4.691406-5.460937-13.3125-15.445313 35.070312-30.039063 26.453125-23.550781c21.71875-15.226562 41.617188-32.890625 59.308594-52.652343l60.757813-75.605469c13.054687-19.140625 24.472656-39.351563 34.132812-60.414063 1.367188.378906 2.765625.636719 4.179688.769532 12.597656 1.015624 24.050781-7.308594 26.972656-19.605469 2.917968-12.292969-3.570313-24.882813-15.28125-29.632813 3.25-15.085937 4.882812-30.476562 4.863281-45.910156 0-2.046875 0-4.179688-.082031-6.316406 0 0 59.902344-4.605469 101.800781-26.964844 4.238281-2.234375 8.339844-4.710938 12.289063-7.421875 6.53125-4.503906 12.34375-9.96875 17.238281-16.214844 1.179687-1.511719 3.226562-2.046875 4.996093-1.3125 1.773438.738281 2.835938 2.566407 2.597657 4.46875zm0 0" fill="#607d8b" data-original="#607d8b" style="" class=""/><path xmlns="http://www.w3.org/2000/svg" d="m407.929688 51.015625c-9.386719 62.804687-39 182.953125-131.160157 271.101563l-60.753906 47.019531c-28.101563 17.148437-58.265625 30.65625-89.773437 40.191406h-.085938l-28.925781 21.335937-21.761719 18.601563-4.691406-5.460937-13.3125-15.445313 35.070312-30.039063 26.453125-23.550781c21.71875-15.226562 41.617188-32.890625 59.308594-52.652343l60.757813-75.605469c13.054687-19.140625 24.472656-39.351563 34.132812-60.414063 1.367188.378906 2.765625.636719 4.179688.769532 12.597656 1.015624 24.050781-7.308594 26.972656-19.605469 2.917968-12.292969-3.570313-24.882813-15.28125-29.632813 3.25-15.085937 4.882812-30.476562 4.863281-45.910156 0-2.046875 0-4.179688-.082031-6.316406 0 0 59.902344-4.605469 101.800781-26.964844 4.238281-2.234375 8.339844-4.710938 12.289063-7.421875zm0 0" fill="#cfd8dc" data-original="#cfd8dc" style="" class=""/><path xmlns="http://www.w3.org/2000/svg" d="m395.640625 58.4375c-10.582031 64.511719-41.300781 178.859375-129.960937 263.679688l-60.757813 47.019531c-28.101563 17.148437-58.265625 30.65625-89.773437 40.191406h-.082032l-28.929687 21.335937-15.359375 13.140626-13.3125-15.445313 35.070312-30.039063 26.453125-23.550781c21.71875-15.226562 41.617188-32.890625 59.308594-52.652343l60.757813-75.605469c13.054687-19.140625 24.472656-39.351563 34.132812-60.414063 1.367188.378906 2.765625.636719 4.179688.769532 12.597656 1.015624 24.050781-7.308594 26.972656-19.605469 2.917968-12.292969-3.570313-24.882813-15.28125-29.632813 3.25-15.085937 4.882812-30.476562 4.863281-45.910156 0-2.046875 0-4.179688-.082031-6.316406 0 0 59.902344-4.605469 101.800781-26.964844zm0 0" fill="#607d8b" data-original="#607d8b" style="" class=""/><path xmlns="http://www.w3.org/2000/svg" d="m420.644531 428.359375-13.3125 15.445313-14.421875 16.894531-35.070312-30.035157-28.929688-21.335937h-.085937c-226.066407-69.101563-273.628907-291.445313-283.476563-371.496094-.171875-1.871093.898438-3.632812 2.636719-4.34375 1.742187-.707031 3.738281-.195312 4.921875 1.261719 8.015625 9.894531 18.070312 17.945312 29.476562 23.601562 41.898438 22.445313 101.886719 27.050782 101.886719 27.050782-.523437 17.539062 1.082031 35.074218 4.777344 52.226562-11.707031 4.75-18.199219 17.339844-15.277344 29.632813 2.917969 12.296875 14.375 20.621093 26.96875 19.605469 1.414063-.132813 2.8125-.390626 4.183594-.769532 39.679687 88.234375 125.609375 171.605469 154.195313 188.671875l26.453124 23.550781zm0 0" fill="#cfd8dc" data-original="#cfd8dc" style="" class=""/><path xmlns="http://www.w3.org/2000/svg" d="m420.644531 428.359375-13.3125 15.445313-15.359375-13.140626-28.929687-21.335937h-.085938c-208.894531-63.828125-265.386719-258.644531-280.574219-350.976563 41.898438 22.445313 101.886719 27.050782 101.886719 27.050782-.523437 17.539062 1.082031 35.074218 4.777344 52.226562-11.707031 4.75-18.199219 17.339844-15.277344 29.632813 2.917969 12.296875 14.375 20.621093 26.96875 19.605469 1.414063-.132813 2.8125-.390626 4.183594-.769532 39.679687 88.234375 125.609375 171.605469 154.195313 188.671875l26.453124 23.550781zm0 0" fill="#607d8b" data-original="#607d8b" style="" class=""/><g xmlns="http://www.w3.org/2000/svg" fill="#fec108"><path d="m112.617188 337.742188c-3.238282 42.273437 28.347656 79.1875 70.613281 82.527343l-2.65625 34.03125c-61.066407-4.777343-106.703125-58.144531-101.945313-119.210937zm0 0" fill="#22a5f1" data-original="#fec108" style="" class=""/><path d="m85.453125 465.308594c0 21.207031-17.191406 38.398437-38.398437 38.398437-21.207032 0-38.402344-17.191406-38.402344-38.398437 0-21.207032 17.195312-38.402344 38.402344-38.402344 21.207031 0 38.398437 17.195312 38.398437 38.402344zm0 0" fill="#22a5f1" data-original="#fec108" style="" class=""/><path d="m365.492188 337.742188c3.238281 42.273437-28.351563 79.1875-70.613282 82.527343l2.652344 34.03125c29.335938-2.285156 56.558594-16.125 75.6875-38.484375 19.125-22.355468 28.589844-51.394531 26.304688-80.726562zm0 0" fill="#22a5f1" data-original="#fec108" style="" class=""/></g><path xmlns="http://www.w3.org/2000/svg" d="m460.238281 490.3125c-10.359375 12.015625-27.023437 16.453125-41.984375 11.175781-4.457031-1.574219-8.59375-3.945312-12.203125-6.996093-16.085937-13.824219-17.957031-38.058594-4.179687-54.1875 13.84375-16.042969 38.042968-17.910157 54.1875-4.179688 16.046875 13.84375 17.914062 38.042969 4.179687 54.1875zm0 0" fill="#147ebb" data-original="#ff9801" style="" class=""/><path xmlns="http://www.w3.org/2000/svg" d="m434.636719 490.3125c-4.371094 5.113281-10.027344 8.972656-16.382813 11.175781-4.457031-1.574219-8.59375-3.945312-12.203125-6.996093-16.085937-13.824219-17.957031-38.058594-4.179687-54.1875 4.371094-5.113282 10.027344-8.972657 16.382812-11.179688 4.472656 1.542969 8.613282 3.917969 12.203125 7 16.089844 13.824219 17.957031 38.058594 4.179688 54.1875zm0 0" fill="#22a5f1" data-original="#fec108" style="" class=""/><path xmlns="http://www.w3.org/2000/svg" d="m119 383.300781c-3.832031 0-7.195312-2.550781-8.222656-6.242187s.53125-7.613282 3.808594-9.59375c21.03125-14.851563 40.316406-32.027344 57.5-51.199219 2.078124-2.257813 5.210937-3.222656 8.203124-2.527344 2.988282.695313 5.375 2.941407 6.25 5.886719.871094 2.941406.097657 6.125-2.03125 8.339844-18.253906 20.289062-38.753906 38.441406-61.105468 54.109375-1.328125.800781-2.851563 1.226562-4.402344 1.226562zm0 0" fill="#000000" data-original="#000000" style="" class=""/><path xmlns="http://www.w3.org/2000/svg" d="m239.054688 255.046875c-3.152344-.003906-6.046876-1.746094-7.527344-4.53125-1.480469-2.785156-1.300782-6.15625.460937-8.773437 12.785157-18.742188 23.96875-38.527344 33.425781-59.152344 1.25-2.78125 3.890626-4.683594 6.925782-4.988282 3.03125-.304687 6 1.027344 7.78125 3.503907 1.78125 2.472656 2.109375 5.710937.855468 8.492187-9.859374 21.503906-21.515624 42.136719-34.839843 61.6875-1.585938 2.351563-4.242188 3.765625-7.082031 3.761719zm0 0" fill="#000000" data-original="#000000" style="" class=""/><path xmlns="http://www.w3.org/2000/svg" d="m299.8125 330.652344c-3.476562-.011719-6.597656-2.128906-7.894531-5.351563-1.296875-3.226562-.503907-6.914062 1.996093-9.328125 89.601563-85.734375 118.921876-203.714844 128.417969-265.632812-33.765625 30.464844-97.355469 40.226562-119.875 42.804687-.085937 15.570313-1.78125 31.089844-5.0625 46.308594-.996093 4.609375-5.539062 7.535156-10.144531 6.539063-4.605469-1-7.53125-5.539063-6.535156-10.148438 3.542968-16.480469 5.082031-33.332031 4.589844-50.183594-.128907-4.550781 3.339843-8.398437 7.875-8.746094 35.910156-2.78125 129.894531-20.523437 133.609374-68.796874.234376-4.710938 4.246094-8.34375 8.957032-8.1054692 4.714844.2343752 8.34375 4.2460932 8.109375 8.9609372-.214844 7.839844-6.734375 193.542969-138.140625 319.28125-1.582032 1.53125-3.699219 2.390625-5.902344 2.398438zm0 0" fill="#000000" data-original="#000000" style="" class=""/><path xmlns="http://www.w3.org/2000/svg" d="m149.285156 417.863281c-4.371094.046875-8.066406-3.214843-8.566406-7.554687-.503906-4.339844 2.355469-8.359375 6.617188-9.308594 30.613281-9.332031 59.929687-22.480469 87.253906-39.140625 2.601562-1.59375 5.855468-1.679687 8.535156-.226563 2.683594 1.453126 4.382812 4.230469 4.464844 7.277344.078125 3.050782-1.472656 5.910156-4.074219 7.507813-28.71875 17.515625-59.542969 31.324219-91.730469 41.101562-.8125.238281-1.65625.355469-2.5.34375zm0 0" fill="#000000" data-original="#000000" style="" class=""/><path xmlns="http://www.w3.org/2000/svg" d="m180.574219 462.824219h-.65625c-31.589844-2.460938-60.90625-17.371094-81.503907-41.449219-20.597656-24.078125-30.78125-55.351562-28.320312-86.941406.367188-4.695313 4.46875-8.207032 9.164062-7.84375l34.03125 2.644531c4.699219.363281 8.214844 4.46875 7.851563 9.164063-2.882813 37.582031 25.191406 70.40625 62.761719 73.386718 4.699218.363282 8.214844 4.46875 7.851562 9.167969l-2.644531 34.03125c-.347656 4.449219-4.070313 7.878906-8.535156 7.867187zm-93.796875-118.535157c.285156 49.992188 36.632812 92.472657 85.980468 100.488282l1.332032-17.066406c-39.914063-7.238282-69.25-41.523438-70.230469-82.074219zm0 0" fill="#000000" data-original="#000000" style="" class=""/><path xmlns="http://www.w3.org/2000/svg" d="m85.15625 469.265625c-3.570312-.003906-6.757812-2.226563-7.996094-5.574219-1.238281-3.347656-.261718-7.109375 2.449219-9.433594l35.121094-30.046874c2.304687-2.074219 5.554687-2.738282 8.484375-1.730469 2.933594 1.003906 5.089844 3.523437 5.632812 6.578125.542969 3.054687-.617187 6.160156-3.023437 8.113281l-35.113281 30.046875c-1.546876 1.324219-3.519532 2.050781-5.554688 2.046875zm0 0" fill="#000000" data-original="#000000" style="" class=""/><path xmlns="http://www.w3.org/2000/svg" d="m57.464844 436.902344c-3.570313-.003906-6.761719-2.226563-8.003906-5.574219-1.238282-3.347656-.261719-7.113281 2.449218-9.4375l35.121094-30.054687c2.320312-1.980469 5.515625-2.578126 8.390625-1.5625 2.875 1.015624 4.988281 3.488281 5.546875 6.488281.558594 2.996093-.527344 6.0625-2.84375 8.042969l-35.121094 30.046874c-1.542968 1.320313-3.507812 2.046876-5.539062 2.050782zm0 0" fill="#000000" data-original="#000000" style="" class=""/><path xmlns="http://www.w3.org/2000/svg" d="m47.054688 512.242188c-19.640626 0-37.203126-12.230469-44.015626-30.652344-6.816406-18.421875-1.4375-39.136719 13.472657-51.917969 19.6875-16.855469 49.308593-14.5625 66.167969 5.121094 11.910156 13.914062 14.636718 33.488281 6.980468 50.128906s-24.289062 27.308594-42.605468 27.320313zm0-76.800782c-7.109376-.011718-13.984376 2.535156-19.371094 7.167969-10.828125 9.261719-13.601563 24.886719-6.628906 37.3125 6.972656 12.425781 21.753906 18.195313 35.300781 13.777344s22.089843-17.789063 20.398437-31.9375c-1.6875-14.148438-13.136718-25.132813-27.34375-26.234375-.828125-.085938-1.621094-.085938-2.355468-.085938zm0 0" fill="#000000" data-original="#000000" style="" class=""/><path xmlns="http://www.w3.org/2000/svg" d="m304.8125 256.242188c-3.441406.007812-6.550781-2.046876-7.886719-5.21875-1.335937-3.167969-.640625-6.832032 1.769531-9.289063 6.960938-7.25 13.390626-14.992187 19.242188-23.167969 1.773438-2.507812 4.757812-3.871094 7.816406-3.5625 3.058594.304688 5.714844 2.230469 6.957032 5.042969 1.238281 2.8125.875 6.070313-.960938 8.539063-6.328125 8.855468-13.289062 17.242187-20.828125 25.09375-1.609375 1.644531-3.8125 2.566406-6.109375 2.5625zm0 0" fill="#000000" data-original="#000000" style="" class=""/><path xmlns="http://www.w3.org/2000/svg" d="m345.722656 199.511719c-3.050781.003906-5.871094-1.621094-7.398437-4.261719-1.527344-2.640625-1.527344-5.898438 0-8.539062 14.664062-26.070313 27.300781-53.226563 37.800781-81.238282.957031-2.957031 3.453125-5.164062 6.507812-5.75 3.054688-.585937 6.1875.535156 8.175782 2.929688 1.988281 2.390625 2.515625 5.679687 1.375 8.574218-10.792969 28.96875-23.847656 57.039063-39.046875 83.957032-1.515625 2.671875-4.347657 4.324218-7.414063 4.328125zm0 0" fill="#000000" data-original="#000000" style="" class=""/><path xmlns="http://www.w3.org/2000/svg" d="m279.410156 195.441406c-.855468 0-1.769531 0-2.664062-.101562-2.128906-.132813-4.230469-.523438-6.265625-1.171875-4.476563-1.492188-6.894531-6.332031-5.398438-10.808594 1.492188-4.476563 6.332031-6.898437 10.808594-5.402344.710937.195313 1.441406.308594 2.179687.339844 9.386719.703125 17.578126-6.308594 18.335938-15.691406.628906-7.390625-3.65625-14.324219-10.546875-17.066407-4.378906-1.746093-6.511719-6.710937-4.765625-11.089843 1.746094-4.378907 6.710938-6.511719 11.089844-4.765625 13.839844 5.488281 22.464844 19.386718 21.238281 34.226562-1.382813 17.769532-16.1875 31.496094-34.011719 31.53125zm0 0" fill="#000000" data-original="#000000" style="" class=""/><path xmlns="http://www.w3.org/2000/svg" d="m359.125 383.320312c-1.539062 0-3.046875-.417968-4.367188-1.210937-33.007812-19.730469-118.546874-105.566406-157.621093-192.539063-1.332031-2.792968-1.050781-6.09375.742187-8.617187 1.792969-2.527344 4.8125-3.882813 7.890625-3.542969 3.078125.335938 5.734375 2.316406 6.933594 5.171875 38.398437 85.445313 123.109375 168.320313 150.808594 184.875 3.300781 1.96875 4.882812 5.898438 3.855469 9.601563-1.023438 3.707031-4.398438 6.269531-8.242188 6.261718zm0 0" fill="#000000" data-original="#000000" style="" class=""/><path xmlns="http://www.w3.org/2000/svg" d="m328.851562 417.855469c-.867187.003906-1.730468-.121094-2.5625-.367188-280.089843-85.625-291.941406-405.300781-292.035156-408.484375-.234375-4.710937 3.394532-8.722656 8.105469-8.957031 4.714844-.238281 8.726563 3.390625 8.960937 8.105469 3.761719 48.316406 97.714844 66.03125 133.605469 68.777344 4.53125.347656 7.996094 4.1875 7.878907 8.730468-.460938 16.871094 1.097656 33.734375 4.648437 50.234375.648437 2.980469-.34375 6.078125-2.601563 8.128907-2.257812 2.050781-5.4375 2.738281-8.34375 1.808593-2.902343-.929687-5.089843-3.339843-5.738281-6.316406-3.289062-15.238281-5.003906-30.769531-5.117187-46.355469-22.484375-2.558594-86.015625-12.332031-119.800782-42.742187 13.59375 87.5 67.148438 286.976562 275.191407 350.71875 4.027343 1.097656 6.671875 4.945312 6.25 9.101562-.421875 4.152344-3.789063 7.390625-7.957031 7.648438zm0 0" fill="#000000" data-original="#000000" style="" class=""/><path xmlns="http://www.w3.org/2000/svg" d="m297.53125 462.824219c-4.464844.015625-8.183594-3.417969-8.53125-7.867188l-2.644531-34.03125c-.363281-4.699219 3.152343-8.800781 7.847656-9.164062 37.574219-2.980469 65.648437-35.808594 62.765625-73.386719-.363281-4.699219 3.152344-8.800781 7.847656-9.164062l34.03125-2.644532c4.695313-.363281 8.800782 3.144532 9.167969 7.839844 2.464844 31.589844-7.722656 62.867188-28.320313 86.949219-20.59375 24.078125-49.914062 38.992187-81.503906 41.453125zm6.488281-35.132813 1.328125 17.066406c49.34375-8.011718 85.6875-50.480468 85.984375-100.46875l-17.066406 1.332032c-.980469 40.550781-30.316406 74.832031-70.230469 82.070312zm0 0" fill="#000000" data-original="#000000" style="" class=""/><path xmlns="http://www.w3.org/2000/svg" d="m392.953125 469.265625c-2.035156 0-4-.722656-5.546875-2.046875l-35.113281-30.070312c-2.410157-1.957032-3.566407-5.0625-3.023438-8.117188.542969-3.050781 2.699219-5.570312 5.628907-6.578125 2.933593-1.007813 6.183593-.34375 8.484374 1.734375l35.125 30.042969c2.707032 2.324219 3.683594 6.089843 2.449219 9.4375-1.238281 3.347656-4.425781 5.570312-7.996093 5.574219zm0 0" fill="#000000" data-original="#000000" style="" class=""/><path xmlns="http://www.w3.org/2000/svg" d="m420.644531 436.902344c-2.03125-.003906-3.996093-.730469-5.539062-2.050782l-35.125-30.046874c-2.316407-1.980469-3.398438-5.046876-2.839844-8.042969.554687-3 2.671875-5.472657 5.546875-6.488281 2.871094-1.015626 6.070312-.417969 8.386719 1.5625l35.125 30.054687c2.710937 2.324219 3.683593 6.089844 2.445312 9.4375s-4.429687 5.570313-8 5.574219zm0 0" fill="#000000" data-original="#000000" style="" class=""/><path xmlns="http://www.w3.org/2000/svg" d="m431.054688 512.242188c-20.796876-.003907-39.109376-13.691407-45.003907-33.632813-5.894531-19.945313 2.039063-41.390625 19.496094-52.695313 17.453125-11.304687 40.265625-9.773437 56.054687 3.757813 14.914063 12.785156 20.292969 33.5 13.476563 51.921875s-24.382813 30.648438-44.023437 30.648438zm.078124-76.800782c-.777343 0-1.570312 0-2.355468.085938-14.207032 1.101562-25.65625 12.085937-27.347656 26.234375-1.691407 14.148437 6.851562 27.519531 20.398437 31.9375s28.328125-1.351563 35.304687-13.777344c6.972657-12.425781 4.195313-28.050781-6.632812-37.3125-5.394531-4.640625-12.285156-7.1875-19.402344-7.167969zm0 0" fill="#000000" data-original="#000000" style="" class=""/><path xmlns="http://www.w3.org/2000/svg" d="m173.296875 256.242188c-2.300781.003906-4.5-.917969-6.109375-2.5625-7.539062-7.839844-14.5-16.214844-20.832031-25.0625-1.832031-2.464844-2.199219-5.726563-.957031-8.535157 1.242187-2.8125 3.898437-4.738281 6.957031-5.046875 3.054687-.304687 6.042969 1.058594 7.816406 3.566406 5.851563 8.160157 12.28125 15.894532 19.242187 23.132813 2.410157 2.457031 3.105469 6.121094 1.769532 9.289063-1.335938 3.171874-4.445313 5.226562-7.886719 5.21875zm0 0" fill="#000000" data-original="#000000" style="" class=""/><path xmlns="http://www.w3.org/2000/svg" d="m132.386719 199.511719c-3.058594.007812-5.886719-1.617188-7.414063-4.265625-15.199218-26.917969-28.257812-54.992188-39.050781-83.960938-1.117187-2.890625-.578125-6.160156 1.402344-8.539062 1.984375-2.382813 5.101562-3.5 8.148437-2.921875 3.042969.578125 5.535156 2.757812 6.511719 5.703125 10.5 28.007812 23.136719 55.171875 37.800781 81.242187 1.527344 2.644531 1.523438 5.898438 0 8.539063-1.527344 2.640625-4.347656 4.265625-7.398437 4.261718zm0 0" fill="#000000" data-original="#000000" style="" class=""/><path xmlns="http://www.w3.org/2000/svg" d="m198.699219 195.441406c-17.804688-.035156-32.605469-13.730468-34.011719-31.480468-1.226562-14.839844 7.394531-28.734376 21.238281-34.226563 4.378907-1.746094 9.34375.386719 11.089844 4.765625s-.386719 9.34375-4.765625 11.089844c-6.894531 2.742187-11.175781 9.675781-10.546875 17.066406.347656 4.511719 2.476563 8.703125 5.917969 11.644531 3.4375 2.941407 7.90625 4.398438 12.417968 4.046875.738282-.03125 1.464844-.144531 2.175782-.339844 4.476562-1.492187 9.320312.925782 10.8125 5.402344 1.492187 4.476563-.925782 9.316406-5.402344 10.8125-2.03125.644532-4.136719 1.035156-6.261719 1.167969-.894531.035156-1.78125.050781-2.664062.050781zm0 0" fill="#000000" data-original="#000000" style="" class=""/></g></svg>
